<svg preserveAspectRatio="none" width="100%" height="100%" overflow="visible" style="display: block;" viewBox="0 0 118.358 29.0275" fill="none" xmlns="http://www.w3.org/2000/svg">
<g id="Group 1272629337">
<path id="Vector" d="M17.6416 17.9843C17.6512 18.1699 17.472 18.1891 17.4336 18.4035C17.2576 18.3971 17.0016 18.5571 16.8672 18.4035C16.5504 18.6979 15.76 18.7203 15.2256 18.7011C15.0976 18.6947 13.8144 18.6051 13.3472 18.7011C13.2064 18.7299 11.584 18.8099 10.8992 18.9091C10.2528 19.1907 7.66085 19.3123 7.04645 19.2675C6.53765 19.4339 5.14245 19.6163 5.07525 19.6259C4.69765 19.6803 3.50085 19.9523 3.34405 20.1027C3.25445 20.1251 2.15685 20.4483 1.97125 20.5219C1.23525 20.7267 1.35365 20.5859 1.07525 20.4899C0.816048 19.8691 0.115248 19.3827 0.268848 18.5507C0.185648 18.4067 -0.0031522 18.3875 4.78033e-05 18.2211C0.0064478 17.8883 2.87045 18.1091 3.93925 18.0131C4.45125 17.7315 5.44965 18.0547 5.91045 17.7731C6.45765 17.8051 7.63525 17.4275 7.84965 17.3859C7.82725 17.1395 7.95845 14.6979 8.11845 13.8019C8.30725 13.7955 8.58885 13.8019 8.68485 13.6227C8.87365 13.7539 9.98405 14.4227 10.208 14.6083C10.2784 14.6659 10.6592 14.8899 10.7744 14.9667C10.9856 15.1043 11.136 15.3827 11.3408 15.5331C11.424 15.5907 11.5584 15.6003 11.6384 15.6515C11.7248 15.7059 11.76 15.7667 11.8464 15.8307C11.8624 16.0771 11.792 16.2339 11.696 16.3683C11.3376 16.4131 11.0656 16.3107 10.6816 16.3971C10.384 16.5187 10.128 16.6787 9.81445 16.7843C9.63845 17.0275 9.24165 17.0499 9.21925 17.4403C9.72805 17.4787 10.4064 17.5139 10.8896 17.3795C11.136 17.3123 11.5008 17.3859 11.7856 17.3187C11.8976 17.2931 14.864 16.9059 15.6352 16.9603C15.7504 16.9667 15.8592 16.8387 15.9328 16.8387C15.9232 16.8451 16.144 16.9667 16.1728 16.8995C16.336 17.1331 16.72 17.1459 16.8896 17.3763C17.008 17.4051 17.1264 17.4371 17.248 17.4659C17.3248 17.6579 17.6256 17.7635 17.6352 17.9747" fill="var(--fill-0, white)"/>
<path id="Vector_2" d="M15.136 21.3859C15.1456 21.8723 14.3296 22.7971 14.3296 22.8771C13.9968 23.2227 13.7504 23.6515 13.6416 24.2211C13.4208 24.6563 13.0144 25.7219 13.0144 25.8019C12.928 25.7763 12.7392 26.8195 12.5952 27.1747C12.5344 27.3219 11.9136 28.7811 11.4016 29.0275C10.96 28.7427 10.7296 28.2467 10.2976 27.9523C10.016 27.4851 9.68004 27.0787 9.46244 26.5507C9.66084 25.9619 10.6304 26.3651 10.9568 26.6115H11.1968C11.344 26.2531 11.4048 26.0675 11.5232 25.6547C11.7088 25.0051 12.016 24.3363 12.3296 23.8051C12.3296 23.7251 12.6464 22.7075 12.8384 22.3139C12.7648 21.9683 12.6976 21.5747 12.3904 21.5075C11.728 21.4755 10.8544 21.8179 10.8544 21.8787C10.3712 22.3715 9.79524 23.4915 9.28004 23.9939C8.88644 24.5731 8.23044 25.2707 7.28644 25.8659C7.09444 25.8563 7.03044 25.9715 6.80964 25.9267C6.66244 25.8243 6.58564 25.4723 6.75204 25.2419C6.81604 25.1491 7.00484 25.1299 7.07844 25.0627C7.17124 24.9763 7.44004 24.6211 7.49444 24.5539C7.52004 24.5251 7.83044 24.1059 7.85284 24.0771C7.92004 23.9811 9.57444 21.4627 10.0608 20.5059C10.0608 20.4259 10.2016 20.0227 10.2016 19.9459C10.496 19.8019 10.5728 19.2515 10.8768 19.2291C11.1776 19.2067 11.2576 19.5491 11.6416 19.5203C11.7792 19.6099 11.9904 19.6995 12.1696 19.7763C12.2528 19.7507 12.5568 19.8403 12.7232 19.7475C12.9632 19.7315 13.1584 19.8947 13.2896 19.9715C13.4208 20.0515 13.5232 20.1411 13.7632 20.1987C14.0896 20.4291 14.7264 20.9475 15.136 21.3923" fill="var(--fill-0, white)"/>
<path id="Vector_3" d="M17.4753 9.64828C17.5137 9.92028 17.3697 10.0099 17.4145 10.2883C17.2577 10.5283 16.9537 10.6211 16.7745 10.8387C16.4161 10.8707 16.0641 10.8099 15.7089 10.8387C15.5265 10.8547 15.3441 10.9411 15.1585 10.9283C14.9377 10.9155 14.7489 10.7971 14.5185 10.8067C13.9489 10.8291 13.0113 10.8003 12.3201 10.7747C12.0161 10.7651 11.7505 10.7459 11.4977 10.9283C11.2897 10.9155 11.0081 10.9699 10.8897 10.8675C10.2849 10.9923 9.57446 11.0179 9.05926 11.2323C8.95366 11.2355 7.12326 11.7827 6.43526 11.9363C6.37126 11.9459 6.40646 12.0515 6.34246 12.0579C5.71206 11.9491 5.12326 12.3203 4.45126 12.3619C4.43206 12.2563 4.24966 12.0739 4.14726 11.9651C3.94886 11.7603 3.80486 11.6419 3.50726 11.5395C3.37606 11.2451 3.28326 10.9091 3.17126 10.5955C3.21286 10.5347 3.26726 10.4899 3.29286 10.4131C3.58406 10.4131 3.56486 10.3587 3.81126 10.4131C3.90726 10.4483 4.57926 10.4099 4.71046 10.3203C5.99046 10.3747 6.32326 10.1027 7.19686 9.95548C7.63526 9.88188 8.06726 9.95548 8.47686 9.77308C8.64006 9.77308 9.12966 9.71228 9.17766 9.65148C9.75366 9.74748 10.0001 9.35708 10.3969 9.37628C11.0465 8.98908 11.3121 8.21788 11.4945 7.36348C11.6801 7.14268 11.6257 6.62108 11.7601 6.41308C11.7441 5.75708 11.8657 5.06908 12.0065 4.56988C12.4577 4.45788 12.8993 4.82908 13.3857 4.73948C13.5009 5.13948 14.0737 5.22268 14.0577 5.65468C13.3345 6.20188 13.3057 7.44348 12.6529 8.06428C12.6753 8.17628 12.3009 8.83868 12.1345 9.10108C12.1761 9.17148 12.2625 9.19708 12.3169 9.25148C12.9985 9.19708 13.7121 9.26748 14.5441 9.16188C14.5729 9.21308 16.0385 9.39228 16.7105 9.28348C16.9409 9.43068 17.1713 9.57788 17.4721 9.65148" fill="var(--fill-0, white)"/>
<path id="Vector_4" d="M15.1264 2.84508C15.1392 3.13628 15.4016 3.17788 15.5232 3.36348C15.5168 3.70268 15.2864 3.81788 14.912 3.79228C14.6144 4.01308 14.48 3.93628 14.0832 4.01308C13.9776 3.96508 13.6 4.12508 13.4784 4.09948C12.5984 4.37468 9.91364 4.33628 9.75684 4.37468C8.88644 4.54108 8.24644 4.93788 7.34724 5.07548C7.13604 5.25148 6.78724 5.28668 6.58564 5.47228C6.09284 5.59388 5.78564 5.36348 5.60964 5.07548C5.64164 4.49308 5.13604 4.02588 5.42724 3.49148C5.72804 3.46588 6.72964 3.68988 6.86404 3.79868C7.17764 3.66428 7.69284 3.73148 8.02244 3.61628C8.48644 3.70908 10.8832 3.08188 11.1616 2.91548C11.376 2.88668 11.7152 2.97948 11.8336 2.85468C11.904 2.90588 12.3008 2.85468 12.352 2.79388C12.9216 2.83548 13.2896 2.67548 13.696 2.55068C14.0128 2.63388 14.3296 2.29468 14.4864 2.67228C14.7392 2.69468 14.9088 2.80028 15.1264 2.85468" fill="var(--fill-0, white)"/>
<path id="Vector_5" d="M11.9552 1.80828C11.7952 2.53148 10.7392 2.36188 10.0928 2.60188C9.76644 2.35868 9.28964 2.26588 9.02404 1.96188C8.05124 1.78588 7.91684 0.771475 7.31524 0.224275V0.0386752C7.90404 -0.130925 8.59524 0.329875 9.17764 0.0386752C9.60004 0.195475 9.92004 0.457875 10.336 0.617875C10.4736 0.947475 11.7088 1.58428 11.952 1.80828" fill="var(--fill-0, white)"/>
<path id="Vector_6" d="M8.87366 6.41308C9.58086 6.50268 9.98406 5.79548 10.5505 6.13788C10.5153 6.97628 9.92646 7.26108 9.78886 8.00028C9.52326 8.28828 9.11046 8.53148 8.56966 8.36508C8.44806 8.29468 8.38726 8.14108 8.26566 8.06108C7.99046 7.87548 7.52646 7.87868 7.28966 7.66428C7.14566 7.53628 7.06246 7.39868 6.95366 7.23868C6.86406 6.97948 7.00806 6.92828 6.98246 6.72028C7.23526 6.67868 7.37286 6.51868 7.62246 6.47708C7.71526 6.48348 7.71526 6.58588 7.74406 6.65948C7.92646 6.65948 8.41926 6.46108 8.87046 6.41628" fill="var(--fill-0, white)"/>
<path id="Vector_7" d="M34.5664 1.37949V2.09629C34.3072 2.16989 34.0992 2.24669 33.9488 2.32989C33.7984 2.41309 33.68 2.52509 33.5968 2.67229C33.5136 2.81629 33.4592 3.00189 33.4336 3.22909C33.408 3.45629 33.3952 3.74429 33.3952 4.08989V14.8739H35.4944C35.9136 14.8739 36.2496 14.8099 36.5024 14.6787C36.7552 14.5475 36.9728 14.3491 37.1584 14.0771C37.344 13.8051 37.5008 13.4531 37.6352 13.0147C37.7696 12.5763 37.8752 12.1667 37.9552 11.7859H39.4368L39.1968 16.1603H28.88V15.4467C29.1488 15.3731 29.3568 15.2963 29.5136 15.2067C29.6672 15.1203 29.7856 15.0019 29.8592 14.8547C29.9328 14.7043 29.984 14.5187 30.0064 14.2915C30.0256 14.0643 30.0384 13.7795 30.0384 13.4307V4.10909C30.0384 3.76989 30.0288 3.48509 30.0128 3.25469C29.9936 3.02429 29.9488 2.83549 29.872 2.69149C29.7984 2.54749 29.68 2.42909 29.5264 2.33949C29.3696 2.24989 29.1552 2.16989 28.8832 2.09629V1.37949H34.5664Z" fill="var(--fill-0, white)"/>
<path id="Vector_8" d="M44.2208 14.1219C44.2208 14.3107 44.2272 14.4867 44.2368 14.6499C44.2464 14.8131 44.2688 14.9443 44.3008 15.0467C44.3328 15.1491 44.3808 15.2355 44.4416 15.3091C44.5024 15.3795 44.5888 15.4403 44.6976 15.4915C44.8064 15.5427 44.9376 15.5875 45.0944 15.6259V16.1603H40.832V15.6259C41.0304 15.5715 41.1904 15.5139 41.3088 15.4499C41.424 15.3859 41.5104 15.2995 41.568 15.1875C41.6256 15.0755 41.6608 14.9347 41.6768 14.7651C41.6928 14.5955 41.7024 14.3811 41.7024 14.1219V7.11387C41.7024 6.85467 41.696 6.64027 41.6832 6.47067C41.6704 6.30427 41.6352 6.16347 41.5776 6.05147C41.52 5.93947 41.4336 5.85307 41.3184 5.78907C41.2 5.72507 41.04 5.66427 40.8352 5.60987V5.07547H45.0976V5.60987C44.8768 5.67067 44.7136 5.73147 44.608 5.80187C44.5024 5.86907 44.4224 5.95227 44.368 6.04827C44.3136 6.14747 44.2752 6.27227 44.256 6.42907C44.2336 6.58587 44.224 6.81627 44.224 7.12027V14.1219H44.2208Z" fill="var(--fill-0, white)"/>
<path id="Vector_9" d="M94.7296 14.1219C94.7296 14.3107 94.736 14.4867 94.7456 14.6499C94.7552 14.8131 94.7776 14.9443 94.8096 15.0467C94.8416 15.1491 94.8896 15.2355 94.9504 15.3091C95.0112 15.3795 95.0976 15.4403 95.2064 15.4915C95.3152 15.5427 95.4464 15.5875 95.6032 15.6259V16.1603H91.3408V15.6259C91.5392 15.5715 91.6992 15.5139 91.8176 15.4499C91.9328 15.3859 92.0192 15.2995 92.0768 15.1875C92.1344 15.0755 92.1696 14.9347 92.1856 14.7651C92.2016 14.5955 92.2112 14.3811 92.2112 14.1219V7.11387C92.2112 6.85467 92.2048 6.64027 92.192 6.47067C92.1792 6.30427 92.144 6.16347 92.0864 6.05147C92.0288 5.93947 91.9424 5.85307 91.8272 5.78907C91.7088 5.72507 91.5488 5.66427 91.344 5.60987V5.07547H95.6064V5.60987C95.3856 5.67067 95.2224 5.73147 95.1168 5.80187C95.0112 5.86907 94.9312 5.95227 94.8768 6.04827C94.8224 6.14747 94.784 6.27227 94.7648 6.42907C94.7424 6.58587 94.7328 6.81627 94.7328 7.12027V14.1219H94.7296Z" fill="var(--fill-0, white)"/>
<path id="Vector_10" d="M50.0352 14.1219C50.0352 14.4099 50.0448 14.6243 50.0608 14.7747C50.0768 14.9251 50.1088 15.0435 50.1504 15.1363C50.192 15.2291 50.2464 15.3027 50.3072 15.3603C50.3712 15.4179 50.4576 15.4691 50.5696 15.5139C50.6816 15.5619 50.832 15.5971 51.0208 15.6259V16.1603H46.6528V15.6259C46.8512 15.5779 47.0112 15.5203 47.1296 15.4563C47.2448 15.3923 47.3312 15.3027 47.3888 15.1907C47.4464 15.0787 47.4816 14.9379 47.4976 14.7651C47.5136 14.5923 47.5232 14.3747 47.5232 14.1155V7.12347C47.5232 6.87067 47.5168 6.65627 47.504 6.48027C47.4912 6.30747 47.456 6.16667 47.3984 6.05787C47.3408 5.94907 47.2544 5.86267 47.1392 5.79547C47.0208 5.72827 46.8608 5.66747 46.656 5.61307V5.07867H54.5088V7.66107H53.3952C53.216 7.14587 53.0656 6.79707 52.9408 6.61787C52.816 6.43547 52.6688 6.29147 52.4928 6.18587C52.32 6.08027 52.0256 6.02587 51.6064 6.02587H50.0384V10.1603H51.0784C51.3344 10.1603 51.5296 10.1219 51.6672 10.0419C51.808 9.96187 51.92 9.83067 52.0096 9.64827C52.0992 9.46587 52.1728 9.20347 52.2336 8.87067H53.152V12.4099H52.2336C52.1696 12.0675 52.0896 11.8051 51.9968 11.6163C51.904 11.4307 51.792 11.2995 51.6576 11.2227C51.52 11.1459 51.3312 11.1107 51.0784 11.1107H50.0384V14.1219H50.0352Z" fill="var(--fill-0, white)"/>
<path id="Vector_11" d="M60.176 12.7235H56.7072L56.4384 13.4947C56.3648 13.7091 56.3008 13.9203 56.2528 14.1251C56.2048 14.3267 56.1792 14.5443 56.1792 14.7683C56.1792 15.2995 56.4608 15.5843 57.024 15.6227V16.1571H53.5552V15.6227C53.7568 15.6003 53.9328 15.5299 54.0832 15.4115C54.2336 15.2931 54.3712 15.1299 54.496 14.9251C54.6208 14.7203 54.752 14.4259 54.896 14.0387L58.2816 5.01788H60.4512L63.1296 14.1123C63.248 14.5187 63.3472 14.8067 63.4304 14.9763C63.5104 15.1459 63.616 15.2835 63.7472 15.3891C63.8784 15.4947 64.0576 15.5715 64.2912 15.6227V16.1571H59.808V15.6227C60.0896 15.5907 60.2976 15.5107 60.432 15.3859C60.5664 15.2611 60.6336 15.0851 60.6336 14.8579C60.6336 14.6915 60.6144 14.5027 60.5792 14.2979C60.5408 14.0931 60.4768 13.8339 60.3936 13.5203L60.1728 12.7235H60.176ZM57.0176 11.7731H59.9424L58.6432 7.20348L57.0176 11.7731Z" fill="var(--fill-0, white)"/>
<path id="Vector_12" d="M75.0848 5.07547V5.60987C74.8704 5.68027 74.7168 5.74107 74.6272 5.78907C74.5376 5.83707 74.4608 5.90107 74.4 5.98427C74.336 6.06427 74.2912 6.18907 74.2592 6.35227C74.2272 6.51867 74.2112 6.77147 74.2112 7.11067V16.1571H72.1504L68.496 9.84027C68.0032 8.98587 67.6416 8.31387 67.408 7.82747H67.3344C67.3888 8.99227 67.4144 10.2211 67.4144 11.5139V14.1283C67.4144 14.5347 67.4336 14.8195 67.4752 14.9795C67.5168 15.1427 67.5872 15.2707 67.696 15.3635C67.8016 15.4595 68 15.5427 68.2944 15.6195V16.1539H65.2256V15.6195C65.4272 15.5651 65.584 15.5043 65.7024 15.4403C65.8176 15.3763 65.904 15.2867 65.9616 15.1779C66.0192 15.0659 66.0544 14.9251 66.0704 14.7587C66.0864 14.5923 66.096 14.3811 66.096 14.1251V7.10107C66.096 6.69467 66.0768 6.41627 66.0448 6.26267C66.0096 6.10907 65.936 5.98107 65.824 5.87547C65.712 5.77307 65.5136 5.68347 65.2256 5.60667V5.07227H68.5152L71.3888 10.0675C71.568 10.3811 71.7984 10.8067 72.0864 11.3411C72.3744 11.8755 72.6272 12.3843 72.8512 12.8611H72.9824C72.9248 11.5683 72.8928 10.1539 72.8928 8.62107V7.11067C72.8928 6.75867 72.88 6.50587 72.8512 6.34587C72.8224 6.18587 72.784 6.07067 72.7264 5.99067C72.6688 5.90747 72.5952 5.84027 72.4992 5.78587C72.4032 5.73147 72.2464 5.67387 72.0224 5.60667V5.07227H75.0912L75.0848 5.07547Z" fill="var(--fill-0, white)"/>
<path id="Vector_13" d="M106.512 5.07547V5.60987C106.298 5.68027 106.144 5.74107 106.054 5.78907C105.965 5.83707 105.888 5.90107 105.827 5.98427C105.763 6.06427 105.718 6.18907 105.686 6.35227C105.654 6.51867 105.638 6.77147 105.638 7.11067V16.1571H103.578L99.9233 9.84027C99.4305 8.98587 99.0689 8.31387 98.8353 7.82747H98.7617C98.8161 8.99227 98.8417 10.2211 98.8417 11.5139V14.1283C98.8417 14.5347 98.8609 14.8195 98.9025 14.9795C98.9441 15.1427 99.0145 15.2707 99.1233 15.3635C99.2289 15.4595 99.4273 15.5427 99.7217 15.6195V16.1539H96.6529V15.6195C96.8545 15.5651 97.0113 15.5043 97.1297 15.4403C97.2449 15.3763 97.3313 15.2867 97.3889 15.1779C97.4465 15.0659 97.4817 14.9251 97.4977 14.7587C97.5137 14.5923 97.5233 14.3811 97.5233 14.1251V7.10107C97.5233 6.69467 97.5041 6.41627 97.4721 6.26267C97.4369 6.10907 97.3633 5.98107 97.2513 5.87547C97.1393 5.77307 96.9409 5.68347 96.6529 5.60667V5.07227H99.9425L102.816 10.0675C102.995 10.3811 103.226 10.8067 103.514 11.3411C103.802 11.8755 104.054 12.3843 104.278 12.8611H104.41C104.352 11.5683 104.32 10.1539 104.32 8.62107V7.11067C104.32 6.75867 104.307 6.50587 104.278 6.34587C104.25 6.18587 104.211 6.07067 104.154 5.99067C104.096 5.90747 104.022 5.84027 103.926 5.78587C103.83 5.73147 103.674 5.67387 103.45 5.60667V5.07227H106.518L106.512 5.07547Z" fill="var(--fill-0, white)"/>
<path id="Vector_14" d="M85.056 5.37627V7.68027H83.9456C83.8208 7.22587 83.6768 6.87707 83.5168 6.62747C83.3568 6.38107 83.152 6.19867 82.8992 6.07707C82.6464 5.95547 82.3232 5.89467 81.9296 5.89467C81.392 5.89467 80.9216 6.05787 80.5088 6.38747C80.0992 6.71387 79.7728 7.23547 79.536 7.95547C79.296 8.67227 79.1776 9.58107 79.1776 10.6787C79.1776 11.6259 79.2576 12.4483 79.4176 13.1427C79.5776 13.8371 79.8208 14.3779 80.1472 14.7619C80.4736 15.1459 80.88 15.3379 81.36 15.3379C81.84 15.3379 82.1888 15.1971 82.416 14.9123C82.6432 14.6275 82.7552 14.1763 82.7552 13.5523V13.2451C82.7552 12.8355 82.7424 12.5411 82.7168 12.3651C82.688 12.1891 82.6464 12.0579 82.592 11.9715C82.5344 11.8851 82.4608 11.8147 82.368 11.7603C82.2752 11.7059 82.1152 11.6451 81.8816 11.5747V11.0371H86.0416V11.5747C85.7696 11.6547 85.5872 11.7475 85.488 11.8499C85.392 11.9523 85.3248 12.0899 85.2896 12.2595C85.2544 12.4291 85.2352 12.6691 85.2352 12.9763V16.0387L84.0672 16.2819L83.5136 15.6963C82.8704 16.0899 82.1312 16.2883 81.296 16.2883C79.7152 16.2883 78.5344 15.8275 77.76 14.9027C76.9824 13.9811 76.5952 12.5827 76.5952 10.7075C76.5952 9.72187 76.736 8.85787 77.0112 8.10907C77.2864 7.36027 77.6704 6.75547 78.16 6.28507C78.6496 5.81787 79.2032 5.47547 79.8176 5.26107C80.432 5.04667 81.0912 4.94107 81.7952 4.94107C82.9792 4.94107 84.0704 5.08507 85.0592 5.36987L85.056 5.37627Z" fill="var(--fill-0, white)"/>
<path id="Vector_15" d="M110.749 6.38748C111.162 6.06108 111.635 5.89468 112.17 5.89468C112.563 5.89468 112.886 5.95548 113.139 6.07708C113.392 6.19868 113.597 6.38428 113.757 6.62748C113.917 6.87388 114.058 7.22268 114.186 7.68028H115.296V5.37628C114.307 5.08828 113.216 4.94748 112.032 4.94748C111.328 4.94748 110.669 5.05308 110.054 5.26748C109.44 5.48188 108.89 5.82108 108.397 6.29148C107.907 6.75868 107.523 7.36668 107.248 8.11548C106.973 8.86108 106.832 9.72828 106.832 10.7139C106.832 11.6995 106.973 12.5635 107.248 13.3123C107.523 14.0611 107.907 14.6659 108.397 15.1363C108.886 15.6035 109.44 15.9459 110.054 16.1603C110.669 16.3747 111.328 16.4803 112.032 16.4803C113.216 16.4803 114.307 16.3363 115.296 16.0515V13.7475H114.186C114.061 14.2019 113.917 14.5507 113.757 14.8003C113.597 15.0467 113.392 15.2291 113.139 15.3507C112.886 15.4723 112.563 15.5331 112.17 15.5331C111.632 15.5331 111.162 15.3699 110.749 15.0403C110.339 14.7139 110.013 14.1923 109.776 13.4723C109.539 12.7587 109.421 11.8531 109.418 10.7619C109.418 9.67068 109.536 8.67548 109.776 7.96188C110.013 7.24508 110.339 6.72028 110.749 6.39388V6.38748Z" fill="var(--fill-0, white)"/>
<path id="Vector_16" d="M118.358 14.6051H116.675V16.2883H118.358V14.6051Z" fill="var(--fill-0, white)"/>
<path id="Vector_17" d="M42.3072 26.2243C42.3072 26.3587 42.304 26.4995 42.2976 26.6499C42.2912 26.8003 42.2816 26.9507 42.272 27.0979C42.2624 27.2451 42.2496 27.3891 42.2304 27.5267C42.2144 27.6643 42.1984 27.7859 42.1824 27.8883L41.5168 28.0003C41.5072 27.9171 41.5008 27.8115 41.4944 27.6835C41.488 27.5555 41.4848 27.4179 41.4848 27.2771C41.4848 27.1331 41.4816 26.9923 41.4816 26.8515V25.0147C41.2928 25.0147 41.1104 25.0179 40.9344 25.0243C40.7584 25.0307 40.592 25.0403 40.4384 25.0467C40.2848 25.0531 40.1472 25.0627 40.0288 25.0691C39.9072 25.0755 39.8112 25.0819 39.7376 25.0883C39.6448 25.0947 39.5424 25.1011 39.4336 25.1075C39.3248 25.1139 39.2192 25.1235 39.1104 25.1331C39.0048 25.1427 38.8992 25.1555 38.7968 25.1651C38.6944 25.1779 38.5984 25.1875 38.5152 25.1971L38.2208 24.4739C38.3296 24.4899 38.448 24.5027 38.5792 24.5155C38.7104 24.5283 38.8416 24.5379 38.9792 24.5475C39.1136 24.5571 39.248 24.5667 39.3792 24.5731C39.5104 24.5795 39.6256 24.5859 39.7312 24.5923C39.8496 24.5987 40.0032 24.5987 40.1888 24.5987C40.3744 24.5987 40.5824 24.5987 40.8032 24.5955C41.024 24.5923 41.2544 24.5891 41.4944 24.5827C41.7344 24.5763 41.9648 24.5699 42.1856 24.5635C42.4064 24.5571 42.6112 24.5507 42.7968 24.5443C42.9824 24.5379 43.1328 24.5315 43.2512 24.5251C43.4144 24.5187 43.584 24.5091 43.76 24.4963C43.936 24.4803 44.1152 24.4643 44.288 24.4483C44.464 24.4323 44.6304 24.4131 44.7936 24.3939C44.9568 24.3747 45.104 24.3555 45.2384 24.3363L45.136 25.0307C45.0368 25.0275 44.9216 25.0211 44.784 25.0147C44.6496 25.0083 44.5024 25.0051 44.3424 24.9987C44.1856 24.9955 44.0224 24.9891 43.8528 24.9827C43.6864 24.9795 43.52 24.9763 43.3568 24.9763H42.9024C42.7264 24.9763 42.528 24.9827 42.3072 24.9987V26.2275V26.2243ZM42.3008 22.6787C42.4768 22.7331 42.672 22.7843 42.8768 22.8387C43.0848 22.8899 43.2928 22.9379 43.504 22.9827C43.7152 23.0275 43.9264 23.0691 44.1312 23.1043C44.3392 23.1427 44.5312 23.1747 44.7072 23.2035L44.2112 23.7955C44.0864 23.7507 43.9296 23.6931 43.7376 23.6259C43.5456 23.5587 43.3376 23.4819 43.1168 23.4051C42.896 23.3251 42.672 23.2451 42.448 23.1651C42.224 23.0851 42.016 23.0083 41.824 22.9379C41.3888 23.1747 40.9344 23.3795 40.4544 23.5523C39.9744 23.7251 39.4912 23.8755 38.9984 24.0035L38.784 23.7283C39.5616 23.4819 40.2688 23.1843 40.9024 22.8323C41.536 22.4835 42.0512 22.1027 42.4512 21.6931C42.1696 21.6931 41.888 21.6963 41.6096 21.7091C41.328 21.7187 41.0592 21.7315 40.8032 21.7475C40.7584 21.7539 40.6912 21.7603 40.5984 21.7699C40.5056 21.7795 40.4064 21.7923 40.2976 21.8019C40.1888 21.8115 40.08 21.8275 39.9712 21.8435C39.8624 21.8595 39.7664 21.8723 39.6832 21.8883L39.2384 21.1779C39.3024 21.1939 39.3888 21.2099 39.5008 21.2259C39.6128 21.2419 39.728 21.2579 39.8528 21.2707C39.9744 21.2835 40.096 21.2931 40.2144 21.3027C40.3328 21.3123 40.4352 21.3187 40.5184 21.3187C40.6944 21.3187 40.912 21.3187 41.168 21.3123C41.424 21.3059 41.6928 21.2963 41.9744 21.2803C42.256 21.2643 42.5344 21.2419 42.8096 21.2131C43.0848 21.1875 43.3312 21.1491 43.5424 21.1075L43.808 21.3891C43.6 21.6451 43.3664 21.8787 43.1104 22.0867C42.8512 22.2979 42.5792 22.4963 42.2944 22.6819L42.3008 22.6787Z" fill="var(--fill-0, white)"/>
<path id="Vector_18" d="M52.1665 23.0051C52.4193 23.2035 52.6913 23.4083 52.9825 23.6227C53.2769 23.8371 53.5841 24.0451 53.9105 24.2467L53.2961 24.8099C53.0753 24.5699 52.8449 24.3235 52.6049 24.0771C52.3649 23.8307 52.1281 23.5971 51.8913 23.3731C51.5905 23.7283 51.2513 24.0419 50.8769 24.3171C50.5025 24.5891 50.1057 24.8547 49.6865 25.1043L49.4497 24.8323C49.7025 24.6659 49.9489 24.4739 50.1953 24.2563C50.4417 24.0387 50.6689 23.8083 50.8801 23.5619C51.0881 23.3155 51.2737 23.0627 51.4273 22.8035C51.5841 22.5443 51.6961 22.2915 51.7729 22.0451C51.7985 21.9459 51.7953 21.8851 51.7697 21.8563C51.7441 21.8307 51.7313 21.8179 51.7377 21.8243C51.7025 21.7891 51.6449 21.7539 51.5649 21.7123C51.4849 21.6739 51.3921 21.6323 51.2961 21.5939L51.4945 21.3059C51.5937 21.3315 51.7025 21.3603 51.8241 21.3987C51.9457 21.4371 52.0673 21.4723 52.1889 21.5107C52.3105 21.5491 52.4353 21.5875 52.5537 21.6259C52.6753 21.6643 52.7841 21.6995 52.8833 21.7283C52.7841 21.9811 52.6753 22.2083 52.5569 22.4163C52.4385 22.6243 52.3073 22.8195 52.1633 23.0083L52.1665 23.0051ZM51.9009 25.3571C52.1537 25.3571 52.4385 25.3507 52.7585 25.3379C53.0785 25.3251 53.3985 25.3123 53.7153 25.2931C54.0321 25.2771 54.3361 25.2579 54.6209 25.2387C54.9057 25.2195 55.1425 25.2003 55.3313 25.1811C55.3057 25.3091 55.2897 25.4147 55.2833 25.4979C55.2769 25.5811 55.2737 25.6643 55.2737 25.7507V26.7779C55.2737 26.9219 55.2673 27.0787 55.2513 27.2547C55.2353 27.4307 55.1937 27.6227 55.1265 27.8339L54.4993 27.9523C54.4897 27.8947 54.4801 27.8179 54.4737 27.7315C54.4673 27.6419 54.4609 27.5491 54.4545 27.4531C54.4481 27.3571 54.4449 27.2643 54.4385 27.1715C54.4321 27.0787 54.4321 27.0051 54.4321 26.9443V25.7091C54.0609 25.6931 53.6737 25.7027 53.2705 25.7315C52.8673 25.7603 52.4705 25.7891 52.0865 25.8115C51.9393 25.8211 51.7825 25.8371 51.6161 25.8627C51.4497 25.8883 51.2833 25.9107 51.1105 25.9363L50.8161 25.2643C50.8801 25.2739 50.9601 25.2867 51.0561 25.2963C51.1521 25.3091 51.2513 25.3187 51.3569 25.3251C51.4593 25.3315 51.5617 25.3379 51.6577 25.3443C51.7537 25.3475 51.8369 25.3507 51.9041 25.3507L51.9009 25.3571ZM53.7281 20.7555C53.8401 20.7715 53.9745 20.7907 54.1281 20.8163C54.2817 20.8419 54.4353 20.8675 54.5953 20.8963C54.7521 20.9251 54.9057 20.9539 55.0497 20.9763C55.1937 21.0019 55.3153 21.0211 55.4081 21.0339C55.3985 21.0787 55.3889 21.1363 55.3825 21.2099C55.3761 21.2835 55.3665 21.3571 55.3569 21.4307C55.3473 21.5043 55.3409 21.5715 55.3345 21.6259C55.3281 21.6835 55.3281 21.7123 55.3281 21.7187V23.7379C55.3281 23.8211 55.3217 23.9235 55.3121 24.0419C55.3025 24.1603 55.2897 24.2787 55.2737 24.4003C55.2577 24.5219 55.2449 24.6371 55.2289 24.7427C55.2129 24.8515 55.2001 24.9347 55.1841 24.9955L54.5569 25.0915C54.5473 25.0371 54.5377 24.9699 54.5281 24.8867C54.5185 24.8067 54.5089 24.7203 54.5025 24.6275C54.4961 24.5379 54.4897 24.4451 54.4865 24.3587C54.4865 24.2691 54.4833 24.1923 54.4833 24.1219V21.6899C54.4833 21.5459 54.4097 21.4307 54.2657 21.3379C54.1185 21.2451 53.8849 21.1587 53.5585 21.0755L53.7281 20.7491V20.7555Z" fill="var(--fill-0, white)"/>
<path id="Vector_19" d="M62.752 25.1939C62.576 25.1587 62.4096 25.1043 62.2592 25.0307C62.1088 24.9571 61.9808 24.8675 61.872 24.7651C61.7632 24.6627 61.6768 24.5443 61.616 24.4163C61.5552 24.2883 61.5232 24.1539 61.5232 24.0099C61.5232 23.8371 61.5648 23.6771 61.648 23.5331C61.7312 23.3859 61.8464 23.2611 61.9904 23.1555C62.1376 23.0499 62.3072 22.9667 62.5056 22.9091C62.704 22.8515 62.9184 22.8195 63.1488 22.8195C63.3952 22.8195 63.6192 22.8515 63.8208 22.9155C64.0224 22.9795 64.1952 23.0691 64.3392 23.1779C64.4832 23.2899 64.592 23.4179 64.672 23.5587C64.752 23.7027 64.7904 23.8531 64.7904 24.0099C64.7904 24.1475 64.7616 24.2819 64.7008 24.4099C64.6432 24.5379 64.5568 24.6563 64.448 24.7587C64.3392 24.8611 64.2112 24.9507 64.064 25.0243C63.9168 25.0979 63.7536 25.1523 63.5744 25.1875V25.7795C63.9456 25.7411 64.2976 25.6931 64.64 25.6355C64.9792 25.5779 65.2992 25.5235 65.5936 25.4691V21.6899C65.5936 21.5459 65.5232 21.4307 65.3792 21.3379C65.2352 21.2451 64.9984 21.1587 64.6688 21.0755L64.8256 20.7491C64.944 20.7651 65.0816 20.7843 65.2352 20.8099C65.392 20.8355 65.5456 20.8611 65.7024 20.8899C65.8592 20.9187 66.0064 20.9475 66.1504 20.9699C66.2944 20.9955 66.4128 21.0147 66.512 21.0275C66.5024 21.0723 66.4928 21.1299 66.4832 21.2035C66.4736 21.2771 66.464 21.3507 66.4576 21.4243C66.4512 21.4979 66.4448 21.5651 66.4384 21.6195C66.432 21.6771 66.432 21.7059 66.432 21.7123V25.7731C66.432 25.9267 66.4288 26.1027 66.4224 26.3011C66.416 26.4995 66.4064 26.7011 66.3936 26.9027C66.3808 27.1043 66.368 27.2963 66.3488 27.4787C66.3328 27.6611 66.3168 27.8051 66.3008 27.9139L65.6576 28.0035C65.6512 27.9235 65.6448 27.8179 65.6384 27.6835C65.632 27.5491 65.6256 27.4019 65.6192 27.2419C65.616 27.0851 65.6096 26.9251 65.6032 26.7619C65.5968 26.5987 65.5968 26.4451 65.5968 26.3043V25.8691C65.3056 25.9267 65.0016 25.9875 64.6784 26.0419C64.3584 26.0995 64.0416 26.1507 63.7312 26.2019C63.4208 26.2499 63.1232 26.2947 62.8384 26.3267C62.5536 26.3619 62.3008 26.3875 62.0736 26.4003C62.0288 26.4067 61.9584 26.4131 61.8624 26.4227C61.7664 26.4323 61.6608 26.4451 61.5456 26.4547C61.4304 26.4675 61.3152 26.4803 61.1968 26.4931C61.0816 26.5059 60.9824 26.5187 60.896 26.5347L60.4608 25.8083C60.5408 25.8243 60.64 25.8371 60.7616 25.8499C60.8832 25.8627 61.0048 25.8723 61.1328 25.8819C61.2576 25.8915 61.3792 25.8979 61.4912 25.9043C61.6032 25.9107 61.6896 25.9107 61.7504 25.9107C62.08 25.8819 62.4128 25.8595 62.7488 25.8435V25.1779L62.752 25.1939ZM65.232 22.6051H64.8256C64.6624 22.6051 64.4864 22.6051 64.2944 22.6083C64.1024 22.6083 63.904 22.6147 63.6992 22.6179C63.4944 22.6243 63.2992 22.6275 63.1104 22.6339C62.9216 22.6403 62.7488 22.6435 62.5888 22.6499C62.4288 22.6563 62.2976 22.6595 62.192 22.6659C62.1376 22.6723 62.0608 22.6787 61.9584 22.6851C61.856 22.6915 61.7536 22.7011 61.6448 22.7139C61.536 22.7267 61.4336 22.7363 61.3344 22.7459C61.2352 22.7555 61.1584 22.7651 61.104 22.7747L60.7552 22.0707C60.8256 22.0803 60.912 22.0931 61.0208 22.1123C61.1296 22.1283 61.2416 22.1443 61.36 22.1603C61.4784 22.1763 61.5904 22.1859 61.6992 22.1987C61.808 22.2083 61.8976 22.2147 61.9648 22.2147C62.128 22.2147 62.3456 22.2115 62.624 22.1987C62.8992 22.1891 63.1968 22.1731 63.5104 22.1539C63.824 22.1347 64.144 22.1091 64.464 22.0803C64.784 22.0515 65.072 22.0131 65.328 21.9683L65.2256 22.6051H65.232ZM64.1728 21.8147H63.8848C63.776 21.8147 63.6672 21.8147 63.5584 21.8179C63.4496 21.8179 63.3472 21.8243 63.248 21.8243C63.1488 21.8243 63.0688 21.8275 63.0048 21.8275C62.9696 21.8275 62.9184 21.8275 62.848 21.8339C62.7776 21.8403 62.704 21.8467 62.6208 21.8531C62.5408 21.8595 62.4576 21.8691 62.3744 21.8755C62.2912 21.8819 62.2176 21.8915 62.16 21.9011L61.8208 21.2579C61.8688 21.2739 61.9456 21.2867 62.0512 21.3027C62.1536 21.3187 62.2624 21.3315 62.3712 21.3443C62.4832 21.3571 62.5888 21.3667 62.688 21.3731C62.7904 21.3795 62.8608 21.3827 62.9056 21.3827C62.9632 21.3827 63.0496 21.3795 63.1616 21.3731C63.2736 21.3667 63.3952 21.3571 63.5264 21.3443C63.6608 21.3315 63.7952 21.3187 63.9296 21.3027C64.064 21.2867 64.1888 21.2739 64.304 21.2579L64.1696 21.8115L64.1728 21.8147ZM62.3968 23.9875C62.3968 24.0899 62.4192 24.1891 62.4608 24.2787C62.5024 24.3683 62.5568 24.4515 62.6272 24.5219C62.6976 24.5923 62.7776 24.6499 62.8704 24.6883C62.9632 24.7267 63.0592 24.7459 63.1584 24.7459C63.2576 24.7459 63.344 24.7267 63.4368 24.6883C63.5296 24.6499 63.6064 24.5955 63.6736 24.5283C63.7408 24.4611 63.7952 24.3811 63.8368 24.2883C63.8784 24.1955 63.9008 24.0931 63.9008 23.9843C63.9008 23.8915 63.8784 23.7987 63.8368 23.7059C63.7952 23.6131 63.7408 23.5363 63.6736 23.4691C63.6064 23.4019 63.5296 23.3475 63.4368 23.3059C63.344 23.2643 63.2544 23.2419 63.1584 23.2419C63.0592 23.2419 62.9632 23.2611 62.8704 23.2963C62.7776 23.3347 62.6944 23.3827 62.6272 23.4467C62.56 23.5107 62.5024 23.5875 62.4608 23.6803C62.4192 23.7731 62.3968 23.8723 62.3968 23.9811V23.9875Z" fill="var(--fill-0, white)"/>
<path id="Vector_20" d="M73.7665 23.5587C73.9009 23.6931 74.0416 23.8307 74.1952 23.9779C74.3488 24.1219 74.5056 24.2691 74.6688 24.4131C74.832 24.5603 74.9952 24.7011 75.1648 24.8387C75.3312 24.9763 75.4976 25.1043 75.6608 25.2227L75.0528 25.8371C74.8224 25.5651 74.5696 25.2643 74.3008 24.9315C74.032 24.5987 73.7696 24.2755 73.5136 23.9651C73.2576 24.3299 72.9568 24.6755 72.6112 25.0019C72.2656 25.3283 71.8656 25.6515 71.4112 25.9715L71.1584 25.7347C71.4432 25.5075 71.7056 25.2579 71.9456 24.9827C72.1856 24.7075 72.4 24.4259 72.5888 24.1315C72.7776 23.8371 72.9409 23.5427 73.0721 23.2483C73.2033 22.9539 73.3056 22.6723 73.376 22.4067C73.4048 22.3171 73.4145 22.2659 73.4017 22.2467C73.3889 22.2275 73.3792 22.2051 73.3696 22.1699C73.344 22.1219 73.2896 22.0675 73.2 22.0131C73.1104 21.9587 73.0112 21.9107 72.896 21.8723L73.0528 21.5971C73.1552 21.6227 73.2704 21.6515 73.3952 21.6899C73.52 21.7283 73.648 21.7635 73.7792 21.8051C73.9104 21.8435 74.0384 21.8819 74.1632 21.9203C74.288 21.9587 74.4 21.9875 74.4992 22.0131C74.3904 22.3043 74.2784 22.5763 74.1632 22.8259C74.048 23.0755 73.9136 23.3219 73.76 23.5587H73.7665ZM76.88 25.7859C76.88 25.9395 76.8768 26.1155 76.8704 26.3139C76.864 26.5123 76.8545 26.7139 76.8417 26.9155C76.8289 27.1171 76.816 27.3091 76.8032 27.4915C76.7904 27.6739 76.7777 27.8179 76.7617 27.9267L76.1121 28.0163C76.1025 27.9363 76.0929 27.8307 76.0865 27.6963C76.0801 27.5619 76.0704 27.4147 76.064 27.2547C76.0576 27.0979 76.0512 26.9379 76.048 26.7747C76.0448 26.6115 76.0448 26.4579 76.0448 26.3171V21.6931C76.0448 21.5491 75.9745 21.4339 75.8369 21.3411C75.6993 21.2483 75.4657 21.1619 75.1425 21.0787L75.2896 20.7523C75.4112 20.7683 75.552 20.7875 75.7088 20.8131C75.8656 20.8387 76.0192 20.8643 76.1792 20.8931C76.336 20.9219 76.4865 20.9507 76.6273 20.9731C76.7681 20.9987 76.8832 21.0179 76.9792 21.0307C76.9632 21.0755 76.9536 21.1331 76.9408 21.2067C76.9312 21.2803 76.9217 21.3539 76.9121 21.4275C76.9025 21.5011 76.896 21.5683 76.8896 21.6227C76.8832 21.6803 76.8832 21.7091 76.8832 21.7155V23.8083C76.992 23.7987 77.1105 23.7859 77.2417 23.7699C77.3729 23.7539 77.504 23.7411 77.6352 23.7251C77.7664 23.7091 77.8912 23.6931 78.0128 23.6771C78.1344 23.6611 78.2401 23.6387 78.3265 23.6131L78.2528 24.3011C78.1792 24.2947 78.0864 24.2947 77.9776 24.2947H76.8832V25.7731L76.88 25.7859Z" fill="var(--fill-0, white)"/>
<path id="Vector_21" d="M91.5264 22.3683C91.3536 22.3587 91.1584 22.3619 90.9376 22.3779C90.7168 22.3939 90.5184 22.4099 90.336 22.4259C90.2816 22.4323 90.208 22.4355 90.1184 22.4451C90.0288 22.4547 89.9296 22.4611 89.8272 22.4675C89.7248 22.4739 89.6192 22.4835 89.5136 22.4963C89.408 22.5091 89.3088 22.5219 89.2224 22.5379L88.8 21.8563C88.8576 21.8659 88.9408 21.8787 89.0464 21.8947C89.152 21.9107 89.2672 21.9235 89.3856 21.9363C89.5072 21.9491 89.6256 21.9587 89.7408 21.9683C89.856 21.9779 89.9552 21.9843 90.032 21.9843C90.1664 21.9843 90.3328 21.9843 90.5312 21.9779C90.7296 21.9715 90.944 21.9683 91.168 21.9587C91.392 21.9491 91.6224 21.9395 91.856 21.9267C92.0896 21.9107 92.3072 21.8947 92.512 21.8755C92.5024 21.9043 92.4896 21.9459 92.48 22.0003C92.4672 22.0547 92.4544 22.1123 92.4384 22.1731C92.4224 22.2339 92.4096 22.2947 92.3968 22.3523C92.384 22.4099 92.3744 22.4515 92.3712 22.4835L92.2528 23.5811C92.2912 23.5811 92.3328 23.5811 92.3744 23.5779C92.416 23.5747 92.4608 23.5715 92.5024 23.5651L92.4288 24.1059C91.8848 24.0803 91.4368 24.0739 91.0784 24.0867C90.72 24.0995 90.4128 24.1155 90.1568 24.1347C90.1568 24.1731 90.1568 24.2083 90.1504 24.2339C90.144 24.2595 90.144 24.2947 90.144 24.3331V25.3315C90.144 25.4595 90.1824 25.5235 90.2624 25.5235C90.4352 25.5075 90.6432 25.4851 90.8896 25.4531C91.136 25.4211 91.4016 25.3795 91.6896 25.3283C91.9744 25.2771 92.2688 25.2163 92.5728 25.1459C92.8768 25.0787 93.1744 24.9987 93.4656 24.9091V21.6931C93.4656 21.5491 93.392 21.4339 93.248 21.3411C93.104 21.2483 92.8672 21.1619 92.5408 21.0787L92.7104 20.7523C92.8224 20.7683 92.9568 20.7875 93.1104 20.8131C93.264 20.8387 93.4176 20.8643 93.5776 20.8931C93.7344 20.9219 93.888 20.9507 94.032 20.9731C94.176 20.9955 94.2976 21.0179 94.3904 21.0307C94.3808 21.0755 94.3712 21.1331 94.3616 21.2067C94.352 21.2803 94.3424 21.3539 94.3328 21.4275C94.3232 21.5011 94.3168 21.5683 94.3104 21.6227C94.304 21.6803 94.304 21.7091 94.304 21.7155V25.7763C94.304 25.9299 94.3008 26.1059 94.2944 26.3043C94.288 26.5027 94.2784 26.7043 94.2656 26.9059C94.2528 27.1075 94.24 27.2995 94.2208 27.4819C94.2048 27.6643 94.1856 27.8083 94.1664 27.9171L93.5392 28.0067C93.5296 27.9267 93.52 27.8211 93.5136 27.6867C93.5072 27.5523 93.4976 27.4051 93.4912 27.2451C93.4848 27.0883 93.4784 26.9283 93.4752 26.7651C93.472 26.6019 93.472 26.4483 93.472 26.3075V25.2707C93.2192 25.3539 92.9408 25.4403 92.6336 25.5267C92.3264 25.6131 92.0192 25.6931 91.712 25.7667C91.4048 25.8403 91.1136 25.9043 90.8384 25.9587C90.5632 26.0131 90.3296 26.0483 90.1344 26.0611C89.84 26.0899 89.6288 26.0515 89.5072 25.9395C89.3856 25.8275 89.3216 25.6515 89.3216 25.4115V24.4291C89.3216 24.3459 89.3152 24.2755 89.3056 24.2211C89.296 24.1667 89.2736 24.1187 89.2352 24.0803C89.1968 24.0419 89.1424 24.0067 89.072 23.9779C89.0016 23.9491 88.9056 23.9171 88.7872 23.8819L88.9504 23.6003C89.3984 23.6451 89.8368 23.6675 90.2624 23.6707C90.688 23.6739 91.0944 23.6611 91.4784 23.6387L91.5296 22.3587L91.5264 22.3683Z" fill="var(--fill-0, white)"/>
<path id="Vector_22" d="M102.941 24.1731C103.126 24.1379 103.322 24.1091 103.517 24.0867C103.715 24.0643 103.898 24.0355 104.07 24.0003V21.6931C104.07 21.5491 104 21.4339 103.862 21.3411C103.725 21.2483 103.491 21.1619 103.168 21.0787L103.315 20.7523C103.437 20.7683 103.578 20.7875 103.734 20.8131C103.891 20.8387 104.045 20.8643 104.205 20.8931C104.362 20.9219 104.512 20.9507 104.653 20.9731C104.794 20.9987 104.912 21.0179 105.005 21.0307C104.989 21.0755 104.979 21.1331 104.966 21.2067C104.957 21.2803 104.947 21.3539 104.938 21.4275C104.928 21.5011 104.922 21.5683 104.915 21.6227C104.909 21.6803 104.909 21.7091 104.909 21.7155V23.1139C105.018 23.0979 105.136 23.0851 105.264 23.0691C105.392 23.0531 105.52 23.0371 105.648 23.0211C105.776 23.0051 105.901 22.9859 106.019 22.9699C106.138 22.9539 106.243 22.9379 106.336 22.9219L106.262 23.5939C106.189 23.5907 106.096 23.5843 105.987 23.5843C105.878 23.5843 105.763 23.5811 105.638 23.5811H104.906V24.0099C104.906 24.0995 104.899 24.2051 104.89 24.3267C104.88 24.4483 104.87 24.5731 104.861 24.6915C104.851 24.8131 104.838 24.9283 104.822 25.0371C104.806 25.1459 104.797 25.2291 104.794 25.2899L104.128 25.3923C104.118 25.3379 104.112 25.2707 104.106 25.1843C104.099 25.1011 104.093 25.0115 104.086 24.9187C104.08 24.8259 104.074 24.7331 104.07 24.6467C104.067 24.5603 104.067 24.4803 104.067 24.4163V24.3651C103.51 24.4931 102.96 24.5987 102.419 24.6787C101.878 24.7587 101.382 24.8195 100.931 24.8611C100.877 24.8675 100.797 24.8739 100.694 24.8835C100.592 24.8931 100.48 24.9059 100.365 24.9155C100.25 24.9283 100.134 24.9411 100.016 24.9539C99.8977 24.9667 99.8017 24.9795 99.7153 24.9955L99.3025 24.2627C99.3761 24.2787 99.4721 24.2947 99.5873 24.3107C99.7025 24.3267 99.8241 24.3427 99.9489 24.3523C100.074 24.3619 100.198 24.3715 100.32 24.3779C100.442 24.3843 100.544 24.3875 100.627 24.3811L100.56 23.1971C100.55 23.1395 100.541 23.0819 100.534 23.0307C100.528 22.9795 100.512 22.9347 100.486 22.8931C100.461 22.8515 100.422 22.8195 100.368 22.7907C100.314 22.7619 100.24 22.7427 100.147 22.7331L100.237 22.4579C100.301 22.4579 100.381 22.4579 100.477 22.4611C100.573 22.4611 100.675 22.4675 100.781 22.4739C100.886 22.4771 100.989 22.4835 101.091 22.4931C101.194 22.4995 101.283 22.5123 101.37 22.5251C101.36 22.5699 101.354 22.6211 101.347 22.6819C101.341 22.7427 101.338 22.8003 101.334 22.8643C101.334 22.9251 101.334 22.9891 101.334 23.0499C101.334 23.1107 101.341 23.1683 101.347 23.2163L101.398 24.3171C101.526 24.3075 101.658 24.2979 101.795 24.2883C101.933 24.2787 102.067 24.2691 102.205 24.2595V23.0403C102.211 22.9667 102.211 22.9027 102.205 22.8515C102.202 22.8003 102.186 22.7587 102.16 22.7267C102.134 22.6947 102.096 22.6691 102.045 22.6531C101.994 22.6371 101.92 22.6211 101.827 22.6051L101.917 22.3235C102.064 22.3331 102.234 22.3459 102.422 22.3619C102.611 22.3779 102.842 22.4003 103.107 22.4355C103.082 22.5187 103.056 22.6243 103.027 22.7523C102.998 22.8771 102.979 22.9923 102.976 23.0915L102.938 24.1763L102.941 24.1731ZM103.517 22.1539C103.318 22.1475 103.101 22.1475 102.861 22.1539C102.621 22.1571 102.384 22.1667 102.15 22.1763C101.917 22.1859 101.696 22.1987 101.491 22.2115C101.286 22.2275 101.117 22.2371 100.986 22.2499C100.922 22.2563 100.838 22.2627 100.733 22.2723C100.627 22.2819 100.522 22.2915 100.406 22.3011C100.291 22.3107 100.182 22.3235 100.077 22.3331C99.9713 22.3459 99.8849 22.3555 99.8209 22.3587L99.4945 21.6547C99.5681 21.6643 99.6641 21.6771 99.7825 21.6931C99.9009 21.7091 100.022 21.7219 100.147 21.7347C100.272 21.7475 100.397 21.7571 100.518 21.7667C100.64 21.7763 100.736 21.7827 100.81 21.7827C100.982 21.7827 101.178 21.7763 101.398 21.7635C101.619 21.7507 101.853 21.7315 102.102 21.7091C102.352 21.6867 102.608 21.6547 102.877 21.6227C103.142 21.5907 103.411 21.5555 103.677 21.5139L103.514 22.1507L103.517 22.1539ZM103.651 25.3731C103.843 25.4019 104.019 25.4563 104.176 25.5363C104.333 25.6163 104.47 25.7091 104.582 25.8211C104.694 25.9331 104.784 26.0579 104.845 26.1987C104.906 26.3395 104.938 26.4899 104.938 26.6467C104.938 26.8227 104.896 26.9923 104.813 27.1491C104.73 27.3059 104.611 27.4435 104.461 27.5555C104.31 27.6675 104.131 27.7603 103.93 27.8243C103.725 27.8915 103.501 27.9235 103.261 27.9235C103.021 27.9235 102.803 27.8915 102.602 27.8243C102.4 27.7571 102.224 27.6675 102.077 27.5555C101.93 27.4435 101.814 27.3059 101.734 27.1491C101.654 26.9923 101.613 26.8227 101.613 26.6467C101.613 26.4835 101.645 26.3299 101.712 26.1827C101.779 26.0387 101.872 25.9075 101.99 25.7955C102.109 25.6835 102.25 25.5875 102.416 25.5139C102.582 25.4403 102.762 25.3923 102.96 25.3667C102.954 25.2963 102.931 25.2483 102.886 25.2163C102.842 25.1843 102.758 25.1491 102.634 25.1075L102.797 24.8259C102.858 24.8355 102.928 24.8515 103.011 24.8707C103.094 24.8899 103.184 24.9091 103.274 24.9283C103.366 24.9475 103.456 24.9667 103.542 24.9891C103.629 25.0115 103.706 25.0275 103.763 25.0403C103.725 25.1203 103.696 25.1811 103.683 25.2259C103.667 25.2707 103.658 25.3187 103.654 25.3731H103.651ZM104.064 26.6083C104.064 26.4867 104.042 26.3715 104 26.2659C103.958 26.1603 103.901 26.0675 103.827 25.9907C103.754 25.9139 103.667 25.8531 103.568 25.8083C103.469 25.7635 103.366 25.7411 103.258 25.7411C103.149 25.7411 103.053 25.7635 102.954 25.8083C102.854 25.8531 102.768 25.9139 102.694 25.9907C102.621 26.0675 102.56 26.1571 102.518 26.2659C102.477 26.3747 102.451 26.4867 102.451 26.6083C102.451 26.7299 102.474 26.8387 102.518 26.9411C102.563 27.0435 102.621 27.1331 102.694 27.2067C102.768 27.2803 102.854 27.3379 102.954 27.3795C103.053 27.4211 103.152 27.4435 103.258 27.4435C103.485 27.4435 103.677 27.3635 103.83 27.2067C103.984 27.0499 104.064 26.8483 104.064 26.6083Z" fill="var(--fill-0, white)"/>
<path id="Vector_23" d="M23.3664 1.37949H22.976V28.0227H23.3664V1.37949Z" fill="var(--fill-0, white)"/>
</g>
</svg>
