<svg preserveAspectRatio="none" width="100%" height="100%" overflow="visible" style="display: block;" viewBox="0 0 236.717 58.055" fill="none" xmlns="http://www.w3.org/2000/svg">
<g id="Group 1272629337">
<path id="Vector" d="M35.2833 35.9686C35.3025 36.3398 34.9441 36.3782 34.8673 36.807C34.5153 36.7942 34.0033 37.1142 33.7345 36.807C33.1009 37.3958 31.5201 37.4406 30.4513 37.4022C30.1953 37.3894 27.6289 37.2102 26.6945 37.4022C26.4129 37.4598 23.1681 37.6198 21.7985 37.8182C20.5057 38.3814 15.3217 38.6246 14.0929 38.535C13.0753 38.8678 10.2849 39.2326 10.1505 39.2518C9.3953 39.3606 7.0017 39.9046 6.6881 40.2054C6.5089 40.2502 4.3137 40.8966 3.9425 41.0438C2.4705 41.4534 2.7073 41.1718 2.1505 40.9798C1.6321 39.7382 0.230505 38.7654 0.537705 37.1014C0.371305 36.8134 -0.00629524 36.775 0.000104762 36.4422C0.0129048 35.7766 5.74091 36.2182 7.87851 36.0262C8.90251 35.463 10.8993 36.1094 11.8209 35.5462C12.9153 35.6102 15.2705 34.855 15.6993 34.7718C15.6545 34.279 15.9169 29.3958 16.2369 27.6038C16.6145 27.591 17.1777 27.6038 17.3697 27.2454C17.7473 27.5078 19.9681 28.8454 20.4161 29.2166C20.5569 29.3318 21.3185 29.7798 21.5489 29.9334C21.9713 30.2086 22.2721 30.7654 22.6817 31.0662C22.8481 31.1814 23.1169 31.2006 23.2769 31.303C23.4497 31.4118 23.5201 31.5334 23.6929 31.6614C23.7249 32.1542 23.5841 32.4678 23.3921 32.7366C22.6753 32.8262 22.1313 32.6214 21.3633 32.7942C20.7681 33.0374 20.2561 33.3574 19.6289 33.5686C19.2769 34.055 18.4833 34.0998 18.4385 34.8806C19.4561 34.9574 20.8129 35.0278 21.7793 34.759C22.2721 34.6246 23.0017 34.7718 23.5713 34.6374C23.7953 34.5862 29.7281 33.8118 31.2705 33.9206C31.5009 33.9334 31.7185 33.6774 31.8657 33.6774C31.8465 33.6902 32.2881 33.9334 32.3457 33.799C32.6721 34.2662 33.4401 34.2918 33.7793 34.7526C34.0161 34.8102 34.2529 34.8742 34.4961 34.9318C34.6497 35.3158 35.2513 35.527 35.2705 35.9494" fill="var(--fill-0, #B2081D)"/>
<path id="Vector_2" d="M30.2721 42.7717C30.2913 43.7445 28.6593 45.5941 28.6593 45.7541C27.9937 46.4453 27.5009 47.3029 27.2833 48.4421C26.8417 49.3125 26.0289 51.4437 26.0289 51.6037C25.8561 51.5525 25.4785 53.6389 25.1905 54.3493C25.0689 54.6437 23.8273 57.5621 22.8033 58.0549C21.9201 57.4853 21.4593 56.4933 20.5953 55.9045C20.0321 54.9701 19.3601 54.1573 18.9249 53.1013C19.3217 51.9237 21.2609 52.7301 21.9137 53.2229H22.3937C22.6881 52.5061 22.8097 52.1349 23.0465 51.3093C23.4177 50.0101 24.0321 48.6725 24.6593 47.6101C24.6593 47.4501 25.2929 45.4149 25.6769 44.6277C25.5297 43.9365 25.3953 43.1493 24.7809 43.0149C23.4561 42.9509 21.7089 43.6357 21.7089 43.7573C20.7425 44.7429 19.5905 46.9829 18.5601 47.9877C17.7729 49.1461 16.4609 50.5413 14.5729 51.7317C14.1889 51.7125 14.0609 51.9429 13.6193 51.8533C13.3249 51.6485 13.1713 50.9445 13.5041 50.4837C13.6321 50.2981 14.0097 50.2597 14.1569 50.1253C14.3425 49.9525 14.8801 49.2421 14.9889 49.1077C15.0401 49.0501 15.6609 48.2117 15.7057 48.1541C15.8401 47.9621 19.1489 42.9253 20.1217 41.0117C20.1217 40.8517 20.4033 40.0453 20.4033 39.8917C20.9921 39.6037 21.1457 38.5029 21.7537 38.4581C22.3553 38.4133 22.5153 39.0981 23.2833 39.0405C23.5585 39.2197 23.9809 39.3989 24.3393 39.5525C24.5057 39.5013 25.1137 39.6805 25.4465 39.4949C25.9265 39.4629 26.3169 39.7893 26.5793 39.9429C26.8417 40.1029 27.0465 40.2821 27.5265 40.3973C28.1793 40.8581 29.4529 41.8949 30.2721 42.7845" fill="var(--fill-0, #B2081D)"/>
<path id="Vector_3" d="M34.9505 19.2966C35.0273 19.8406 34.7393 20.0198 34.8289 20.5766C34.5153 21.0566 33.9073 21.2422 33.5489 21.6774C32.8321 21.7414 32.1281 21.6198 31.4177 21.6774C31.0529 21.7094 30.6881 21.8822 30.3169 21.8566C29.8753 21.831 29.4977 21.5942 29.0369 21.6134C27.8977 21.6582 26.0225 21.6006 24.6401 21.5494C24.0321 21.5302 23.5009 21.4918 22.9953 21.8566C22.5793 21.831 22.0161 21.9398 21.7793 21.735C20.5697 21.9846 19.1489 22.0358 18.1185 22.4646C17.9073 22.471 14.2465 23.5654 12.8705 23.8726C12.7425 23.8918 12.8129 24.103 12.6849 24.1158C11.4241 23.8982 10.2465 24.6406 8.90252 24.7238C8.86412 24.5126 8.49932 24.1478 8.29452 23.9302C7.89772 23.5206 7.60972 23.2838 7.01452 23.079C6.75212 22.4902 6.56652 21.8182 6.34252 21.191C6.42572 21.0694 6.53452 20.9798 6.58572 20.8262C7.16812 20.8262 7.12972 20.7174 7.62252 20.8262C7.81452 20.8966 9.15852 20.8198 9.42092 20.6406C11.9809 20.7494 12.6465 20.2054 14.3937 19.911C15.2705 19.7638 16.1345 19.911 16.9537 19.5462C17.2801 19.5462 18.2593 19.4246 18.3553 19.303C19.5073 19.495 20.0001 18.7142 20.7937 18.7526C22.0929 17.9782 22.6241 16.4358 22.9889 14.727C23.3601 14.2854 23.2513 13.2422 23.5201 12.8262C23.4881 11.5142 23.7313 10.1382 24.0129 9.13975C24.9153 8.91575 25.7985 9.65815 26.7713 9.47895C27.0017 10.279 28.1473 10.4454 28.1153 11.3094C26.6689 12.4038 26.6113 14.887 25.3057 16.1286C25.3505 16.3526 24.6017 17.6774 24.2689 18.2022C24.3521 18.343 24.5249 18.3942 24.6337 18.503C25.9969 18.3942 27.4241 18.535 29.0881 18.3238C29.1457 18.4262 32.0769 18.7846 33.4209 18.567C33.8817 18.8614 34.3425 19.1558 34.9441 19.303" fill="var(--fill-0, #B2081D)"/>
<path id="Vector_4" d="M30.2529 5.69015C30.2785 6.27255 30.8033 6.35575 31.0465 6.72695C31.0337 7.40535 30.5729 7.63575 29.8241 7.58455C29.2289 8.02615 28.9601 7.87255 28.1665 8.02615C27.9553 7.93015 27.2001 8.25015 26.9569 8.19895C25.1969 8.74935 19.8273 8.67255 19.5137 8.74935C17.7729 9.08215 16.4929 9.87575 14.6945 10.151C14.2721 10.503 13.5745 10.5734 13.1713 10.9446C12.1857 11.1878 11.5713 10.727 11.2193 10.151C11.2833 8.98615 10.2721 8.05175 10.8545 6.98295C11.4561 6.93175 13.4593 7.37975 13.7281 7.59735C14.3553 7.32855 15.3857 7.46295 16.0449 7.23255C16.9729 7.41815 21.7665 6.16375 22.3233 5.83095C22.7521 5.77335 23.4305 5.95895 23.6673 5.70935C23.8081 5.81175 24.6017 5.70935 24.7041 5.58775C25.8433 5.67095 26.5793 5.35095 27.3921 5.10135C28.0257 5.26775 28.6593 4.58935 28.9729 5.34455C29.4785 5.38935 29.8177 5.60055 30.2529 5.70935" fill="var(--fill-0, #B2081D)"/>
<path id="Vector_5" d="M23.9105 3.61655C23.5905 5.06295 21.4785 4.72375 20.1857 5.20375C19.5329 4.71735 18.5793 4.53175 18.0481 3.92375C16.1025 3.57175 15.8337 1.54295 14.6305 0.448553V0.0773528C15.8081 -0.261847 17.1905 0.659753 18.3553 0.0773528C19.2001 0.390953 19.8401 0.915753 20.6721 1.23575C20.9473 1.89495 23.4177 3.16855 23.9041 3.61655" fill="var(--fill-0, #B2081D)"/>
<path id="Vector_6" d="M17.7473 12.8262C19.1617 13.0054 19.9681 11.591 21.1009 12.2758C21.0305 13.9526 19.8529 14.5222 19.5777 16.0006C19.0465 16.5766 18.2209 17.063 17.1393 16.7302C16.8961 16.5894 16.7745 16.2822 16.5313 16.1222C15.9809 15.751 15.0529 15.7574 14.5793 15.3286C14.2913 15.0726 14.1249 14.7974 13.9073 14.4774C13.7281 13.959 14.0161 13.8566 13.9649 13.4406C14.4705 13.3574 14.7457 13.0374 15.2449 12.9542C15.4305 12.967 15.4305 13.1718 15.4881 13.319C15.8529 13.319 16.8385 12.9222 17.7409 12.8326" fill="var(--fill-0, #B2081D)"/>
<path id="Vector_7" d="M69.1329 2.75895V4.19255C68.6145 4.33975 68.1985 4.49335 67.8977 4.65975C67.5969 4.82615 67.3601 5.05015 67.1937 5.34455C67.0273 5.63255 66.9185 6.00375 66.8673 6.45815C66.8161 6.91255 66.7905 7.48855 66.7905 8.17975V29.7477H70.9889C71.8273 29.7477 72.4993 29.6197 73.0049 29.3573C73.5105 29.0949 73.9457 28.6981 74.3169 28.1541C74.6881 27.6101 75.0017 26.9061 75.2705 26.0293C75.5393 25.1525 75.7505 24.3333 75.9105 23.5717H78.8737L78.3937 32.3205H57.7601V30.8933C58.2977 30.7461 58.7137 30.5925 59.0273 30.4133C59.3345 30.2405 59.5713 30.0037 59.7185 29.7093C59.8657 29.4085 59.9681 29.0373 60.0129 28.5829C60.0513 28.1285 60.0769 27.5589 60.0769 26.8613V8.21815C60.0769 7.53975 60.0577 6.97015 60.0257 6.50935C59.9873 6.04855 59.8977 5.67095 59.7441 5.38295C59.5969 5.09495 59.3601 4.85815 59.0529 4.67895C58.7393 4.49975 58.3105 4.33975 57.7665 4.19255V2.75895H69.1329Z" fill="var(--fill-0, #727171)"/>
<path id="Vector_8" d="M88.4417 28.2438C88.4417 28.6214 88.4545 28.9734 88.4737 29.2998C88.4929 29.6262 88.5377 29.8886 88.6017 30.0934C88.6657 30.2982 88.7617 30.471 88.8833 30.6182C89.0049 30.759 89.1777 30.8806 89.3953 30.983C89.6129 31.0854 89.8753 31.175 90.1889 31.2518V32.3206H81.6641V31.2518C82.0609 31.143 82.3809 31.0278 82.6177 30.8998C82.8481 30.7718 83.0209 30.599 83.1361 30.375C83.2513 30.151 83.3217 29.8694 83.3537 29.5302C83.3857 29.191 83.4049 28.7622 83.4049 28.2438V14.2278C83.4049 13.7094 83.3921 13.2806 83.3665 12.9414C83.3409 12.6086 83.2705 12.327 83.1553 12.103C83.0401 11.879 82.8673 11.7062 82.6369 11.5782C82.4001 11.4502 82.0801 11.3286 81.6705 11.2198V10.151H90.1953V11.2198C89.7537 11.3414 89.4273 11.463 89.2161 11.6038C89.0049 11.7382 88.8449 11.9046 88.7361 12.0966C88.6273 12.295 88.5505 12.5446 88.5121 12.8582C88.4673 13.1718 88.4481 13.6326 88.4481 14.2406V28.2438H88.4417Z" fill="var(--fill-0, #727171)"/>
<path id="Vector_9" d="M189.459 28.2438C189.459 28.6214 189.472 28.9734 189.491 29.2998C189.51 29.6262 189.555 29.8886 189.619 30.0934C189.683 30.2982 189.779 30.471 189.901 30.6182C190.022 30.759 190.195 30.8806 190.413 30.983C190.63 31.0854 190.893 31.175 191.206 31.2518V32.3206H182.682V31.2518C183.078 31.143 183.398 31.0278 183.635 30.8998C183.866 30.7718 184.038 30.599 184.154 30.375C184.269 30.151 184.339 29.8694 184.371 29.5302C184.403 29.191 184.422 28.7622 184.422 28.2438V14.2278C184.422 13.7094 184.41 13.2806 184.384 12.9414C184.358 12.6086 184.288 12.327 184.173 12.103C184.058 11.879 183.885 11.7062 183.654 11.5782C183.418 11.4502 183.098 11.3286 182.688 11.2198V10.151H191.213V11.2198C190.771 11.3414 190.445 11.463 190.234 11.6038C190.022 11.7382 189.862 11.9046 189.754 12.0966C189.645 12.295 189.568 12.5446 189.53 12.8582C189.485 13.1718 189.466 13.6326 189.466 14.2406V28.2438H189.459Z" fill="var(--fill-0, #727171)"/>
<path id="Vector_10" d="M100.07 28.2437C100.07 28.8197 100.09 29.2485 100.122 29.5493C100.154 29.8501 100.218 30.0869 100.301 30.2725C100.384 30.4581 100.493 30.6053 100.614 30.7205C100.742 30.8357 100.915 30.9381 101.139 31.0277C101.363 31.1237 101.664 31.1941 102.042 31.2517V32.3205H93.3057V31.2517C93.7025 31.1557 94.0225 31.0405 94.2593 30.9125C94.4897 30.7845 94.6625 30.6053 94.7777 30.3813C94.8929 30.1573 94.9633 29.8757 94.9953 29.5301C95.0273 29.1845 95.0465 28.7493 95.0465 28.2309V14.2469C95.0465 13.7413 95.0337 13.3125 95.0081 12.9605C94.9825 12.6149 94.9121 12.3333 94.7969 12.1157C94.6817 11.8981 94.5089 11.7253 94.2785 11.5909C94.0417 11.4565 93.7217 11.3349 93.3121 11.2261V10.1573H109.018V15.3221H106.79C106.432 14.2917 106.131 13.5941 105.882 13.2357C105.632 12.8709 105.338 12.5829 104.986 12.3717C104.64 12.1605 104.051 12.0517 103.213 12.0517H100.077V20.3205H102.157C102.669 20.3205 103.059 20.2437 103.334 20.0837C103.616 19.9237 103.84 19.6613 104.019 19.2965C104.198 18.9317 104.346 18.4069 104.467 17.7413H106.304V24.8197H104.467C104.339 24.1349 104.179 23.6101 103.994 23.2325C103.808 22.8613 103.584 22.5989 103.315 22.4453C103.04 22.2917 102.662 22.2213 102.157 22.2213H100.077V28.2437H100.07Z" fill="var(--fill-0, #727171)"/>
<path id="Vector_11" d="M120.352 25.447H113.415L112.877 26.9894C112.73 27.4182 112.602 27.8406 112.506 28.2502C112.41 28.6534 112.358 29.0886 112.358 29.5366C112.358 30.599 112.922 31.1686 114.048 31.2454V32.3142H107.11V31.2454C107.514 31.2006 107.866 31.0598 108.166 30.823C108.467 30.5862 108.742 30.2598 108.992 29.8502C109.242 29.4406 109.504 28.8518 109.792 28.0774L116.563 10.0358H120.902L126.259 28.2246C126.496 29.0374 126.694 29.6134 126.861 29.9526C127.021 30.2918 127.232 30.567 127.494 30.7782C127.757 30.9894 128.115 31.143 128.582 31.2454V32.3142H119.616V31.2454C120.179 31.1814 120.595 31.0214 120.864 30.7718C121.133 30.5222 121.267 30.1702 121.267 29.7158C121.267 29.383 121.229 29.0054 121.158 28.5958C121.082 28.1862 120.954 27.6678 120.787 27.0406L120.346 25.447H120.352ZM114.035 23.5462H119.885L117.286 14.407L114.035 23.5462Z" fill="var(--fill-0, #727171)"/>
<path id="Vector_12" d="M150.17 10.151V11.2198C149.741 11.3606 149.434 11.4822 149.255 11.5782C149.075 11.6742 148.922 11.8022 148.8 11.9686C148.672 12.1286 148.583 12.3782 148.519 12.7046C148.455 13.0374 148.423 13.543 148.423 14.2214V32.3142H144.301L136.992 19.6806C136.007 17.9718 135.283 16.6278 134.816 15.655H134.669C134.778 17.9846 134.829 20.4422 134.829 23.0278V28.2566C134.829 29.0694 134.867 29.639 134.951 29.959C135.034 30.2854 135.175 30.5414 135.392 30.727C135.603 30.919 136 31.0854 136.589 31.239V32.3078H130.451V31.239C130.855 31.1302 131.168 31.0086 131.405 30.8806C131.635 30.7526 131.808 30.5734 131.923 30.3558C132.039 30.1318 132.109 29.8502 132.141 29.5174C132.173 29.1846 132.192 28.7622 132.192 28.2502V14.2022C132.192 13.3894 132.154 12.8326 132.09 12.5254C132.019 12.2182 131.872 11.9622 131.648 11.751C131.424 11.5462 131.027 11.367 130.451 11.2134V10.1446H137.031L142.778 20.135C143.136 20.7622 143.597 21.6134 144.173 22.6822C144.749 23.751 145.255 24.7686 145.703 25.7222H145.965C145.85 23.1366 145.786 20.3078 145.786 17.2422V14.2214C145.786 13.5174 145.76 13.0118 145.703 12.6918C145.645 12.3718 145.568 12.1414 145.453 11.9814C145.338 11.815 145.191 11.6806 144.999 11.5718C144.807 11.463 144.493 11.3478 144.045 11.2134V10.1446H150.183L150.17 10.151Z" fill="var(--fill-0, #727171)"/>
<path id="Vector_13" d="M213.024 10.151V11.2198C212.595 11.3606 212.288 11.4822 212.109 11.5782C211.93 11.6742 211.776 11.8022 211.655 11.9686C211.527 12.1286 211.437 12.3782 211.373 12.7046C211.309 13.0374 211.277 13.543 211.277 14.2214V32.3142H207.155L199.847 19.6806C198.861 17.9718 198.138 16.6278 197.671 15.655H197.523C197.632 17.9846 197.683 20.4422 197.683 23.0278V28.2566C197.683 29.0694 197.722 29.639 197.805 29.959C197.888 30.2854 198.029 30.5414 198.247 30.727C198.458 30.919 198.855 31.0854 199.443 31.239V32.3078H193.306V31.239C193.709 31.1302 194.023 31.0086 194.259 30.8806C194.49 30.7526 194.663 30.5734 194.778 30.3558C194.893 30.1318 194.963 29.8502 194.995 29.5174C195.027 29.1846 195.047 28.7622 195.047 28.2502V14.2022C195.047 13.3894 195.008 12.8326 194.944 12.5254C194.874 12.2182 194.727 11.9622 194.503 11.751C194.279 11.5462 193.882 11.367 193.306 11.2134V10.1446H199.885L205.632 20.135C205.991 20.7622 206.451 21.6134 207.027 22.6822C207.603 23.751 208.109 24.7686 208.557 25.7222H208.819C208.704 23.1366 208.64 20.3078 208.64 17.2422V14.2214C208.64 13.5174 208.615 13.0118 208.557 12.6918C208.499 12.3718 208.423 12.1414 208.307 11.9814C208.192 11.815 208.045 11.6806 207.853 11.5718C207.661 11.463 207.347 11.3478 206.899 11.2134V10.1446H213.037L213.024 10.151Z" fill="var(--fill-0, #727171)"/>
<path id="Vector_14" d="M170.112 10.7526V15.3606H167.891C167.642 14.4518 167.354 13.7542 167.034 13.255C166.714 12.7622 166.304 12.3974 165.798 12.1542C165.293 11.911 164.646 11.7894 163.859 11.7894C162.784 11.7894 161.843 12.1158 161.018 12.775C160.198 13.4278 159.546 14.471 159.072 15.911C158.592 17.3446 158.355 19.1622 158.355 21.3574C158.355 23.2518 158.515 24.8966 158.835 26.2854C159.155 27.6742 159.642 28.7558 160.294 29.5238C160.947 30.2918 161.76 30.6758 162.72 30.6758C163.68 30.6758 164.378 30.3942 164.832 29.8246C165.286 29.255 165.51 28.3526 165.51 27.1046V26.4902C165.51 25.671 165.485 25.0822 165.434 24.7302C165.376 24.3782 165.293 24.1158 165.184 23.943C165.069 23.7702 164.922 23.6294 164.736 23.5206C164.55 23.4118 164.23 23.2902 163.763 23.1494V22.0742H172.083V23.1494C171.539 23.3094 171.174 23.495 170.976 23.6998C170.784 23.9046 170.65 24.1798 170.579 24.519C170.509 24.8582 170.47 25.3382 170.47 25.9526V32.0774L168.134 32.5638L167.027 31.3926C165.741 32.1798 164.262 32.5766 162.592 32.5766C159.43 32.5766 157.069 31.655 155.52 29.8054C153.965 27.9622 153.19 25.1654 153.19 21.415C153.19 19.4438 153.472 17.7158 154.022 16.2182C154.573 14.7206 155.341 13.511 156.32 12.5702C157.299 11.6358 158.406 10.951 159.635 10.5222C160.864 10.0934 162.182 9.88215 163.59 9.88215C165.958 9.88215 168.141 10.1702 170.118 10.7398L170.112 10.7526Z" fill="var(--fill-0, #727171)"/>
<path id="Vector_15" d="M221.498 12.775C222.323 12.1222 223.27 11.7894 224.339 11.7894C225.126 11.7894 225.773 11.911 226.278 12.1542C226.784 12.3974 227.194 12.7686 227.514 13.255C227.834 13.7478 228.115 14.4454 228.371 15.3606H230.592V10.7526C228.614 10.1766 226.432 9.89495 224.064 9.89495C222.656 9.89495 221.338 10.1062 220.109 10.535C218.88 10.9638 217.779 11.6422 216.794 12.583C215.814 13.5174 215.046 14.7334 214.496 16.231C213.946 17.7222 213.664 19.4566 213.664 21.4278C213.664 23.399 213.946 25.127 214.496 26.6246C215.046 28.1222 215.814 29.3318 216.794 30.2726C217.773 31.207 218.88 31.8918 220.109 32.3206C221.338 32.7494 222.656 32.9606 224.064 32.9606C226.432 32.9606 228.614 32.6726 230.592 32.103V27.495H228.371C228.122 28.4038 227.834 29.1014 227.514 29.6006C227.194 30.0934 226.784 30.4582 226.278 30.7014C225.773 30.9446 225.126 31.0662 224.339 31.0662C223.264 31.0662 222.323 30.7398 221.498 30.0806C220.678 29.4278 220.026 28.3846 219.552 26.9446C219.078 25.5174 218.842 23.7062 218.835 21.5238C218.835 19.3414 219.072 17.351 219.552 15.9238C220.026 14.4902 220.678 13.4406 221.498 12.7878V12.775Z" fill="var(--fill-0, #727171)"/>
<path id="Vector_16" d="M236.717 29.2102H233.35V32.5766H236.717V29.2102Z" fill="var(--fill-0, #727171)"/>
<path id="Vector_17" d="M84.6145 52.4486C84.6145 52.7174 84.6081 52.999 84.5953 53.2998C84.5825 53.6006 84.5633 53.9014 84.5441 54.1958C84.5249 54.4902 84.4993 54.7782 84.4609 55.0534C84.4289 55.3286 84.3969 55.5718 84.3649 55.7766L83.0337 56.0006C83.0145 55.8342 83.0017 55.623 82.9889 55.367C82.9761 55.111 82.9697 54.8358 82.9697 54.5542C82.9697 54.2662 82.9633 53.9846 82.9633 53.703V50.0294C82.5857 50.0294 82.2209 50.0358 81.8689 50.0486C81.5169 50.0614 81.1841 50.0806 80.8769 50.0934C80.5697 50.1062 80.2945 50.1254 80.0577 50.1382C79.8145 50.151 79.6225 50.1638 79.4753 50.1766C79.2897 50.1894 79.0849 50.2022 78.8673 50.215C78.6497 50.2278 78.4385 50.247 78.2209 50.2662C78.0097 50.2854 77.7985 50.311 77.5937 50.3302C77.3889 50.3558 77.1969 50.375 77.0305 50.3942L76.4417 48.9478C76.6593 48.9798 76.8961 49.0054 77.1585 49.031C77.4209 49.0566 77.6833 49.0758 77.9585 49.095C78.2273 49.1142 78.4961 49.1334 78.7585 49.1462C79.0209 49.159 79.2513 49.1718 79.4625 49.1846C79.6993 49.1974 80.0065 49.1974 80.3777 49.1974C80.7489 49.1974 81.1649 49.1974 81.6065 49.191C82.0481 49.1846 82.5089 49.1782 82.9889 49.1654C83.4689 49.1526 83.9297 49.1398 84.3713 49.127C84.8129 49.1142 85.2225 49.1014 85.5937 49.0886C85.9649 49.0758 86.2657 49.063 86.5025 49.0502C86.8289 49.0374 87.1681 49.0182 87.5201 48.9926C87.8721 48.9606 88.2305 48.9286 88.5761 48.8966C88.9281 48.8646 89.2609 48.8262 89.5873 48.7878C89.9137 48.7494 90.2081 48.711 90.4769 48.6726L90.2721 50.0614C90.0737 50.055 89.8433 50.0422 89.5681 50.0294C89.2993 50.0166 89.0049 50.0102 88.6849 49.9974C88.3713 49.991 88.0449 49.9782 87.7057 49.9654C87.3729 49.959 87.0401 49.9526 86.7137 49.9526H85.8049C85.4529 49.9526 85.0561 49.9654 84.6145 49.9974V52.455V52.4486ZM84.6017 45.3574C84.9537 45.4662 85.3441 45.5686 85.7537 45.6774C86.1697 45.7798 86.5857 45.8758 87.0081 45.9654C87.4305 46.055 87.8529 46.1382 88.2625 46.2086C88.6785 46.2854 89.0625 46.3494 89.4145 46.407L88.4225 47.591C88.1729 47.5014 87.8593 47.3862 87.4753 47.2518C87.0913 47.1174 86.6753 46.9638 86.2337 46.8102C85.7921 46.6502 85.3441 46.4902 84.8961 46.3302C84.4481 46.1702 84.0321 46.0166 83.6481 45.8758C82.7777 46.3494 81.8689 46.759 80.9089 47.1046C79.9489 47.4502 78.9825 47.751 77.9969 48.007L77.5681 47.4566C79.1233 46.9638 80.5377 46.3686 81.8049 45.6646C83.0721 44.967 84.1025 44.2054 84.9025 43.3862C84.3393 43.3862 83.7761 43.3926 83.2193 43.4182C82.6561 43.4374 82.1185 43.463 81.6065 43.495C81.5169 43.5078 81.3825 43.5206 81.1969 43.5398C81.0113 43.559 80.8129 43.5846 80.5953 43.6038C80.3777 43.623 80.1601 43.655 79.9425 43.687C79.7249 43.719 79.5329 43.7446 79.3665 43.7766L78.4769 42.3558C78.6049 42.3878 78.7777 42.4198 79.0017 42.4518C79.2257 42.4838 79.4561 42.5158 79.7057 42.5414C79.9489 42.567 80.1921 42.5862 80.4289 42.6054C80.6657 42.6246 80.8705 42.6374 81.0369 42.6374C81.3889 42.6374 81.8241 42.6374 82.3361 42.6246C82.8481 42.6118 83.3857 42.5926 83.9489 42.5606C84.5121 42.5286 85.0689 42.4838 85.6193 42.4262C86.1697 42.375 86.6625 42.2982 87.0849 42.215L87.6161 42.7782C87.2001 43.2902 86.7329 43.7574 86.2209 44.1734C85.7025 44.5958 85.1585 44.9926 84.5889 45.3638L84.6017 45.3574Z" fill="var(--fill-0, #727171)"/>
<path id="Vector_18" d="M104.333 46.0101C104.839 46.4069 105.383 46.8165 105.965 47.2453C106.554 47.6741 107.168 48.0901 107.821 48.4933L106.592 49.6197C106.151 49.1397 105.69 48.6469 105.21 48.1541C104.73 47.6613 104.256 47.1941 103.783 46.7461C103.181 47.4565 102.503 48.0837 101.754 48.6341C101.005 49.1781 100.211 49.7093 99.3729 50.2085L98.8993 49.6645C99.4049 49.3317 99.8977 48.9478 100.391 48.5126C100.883 48.0774 101.338 47.6165 101.76 47.1237C102.176 46.6309 102.547 46.1253 102.855 45.6069C103.168 45.0885 103.392 44.5829 103.546 44.0901C103.597 43.8917 103.591 43.7702 103.539 43.7126C103.488 43.6614 103.463 43.6357 103.475 43.6485C103.405 43.5781 103.29 43.5077 103.13 43.4245C102.97 43.3477 102.784 43.2646 102.592 43.1878L102.989 42.6117C103.187 42.6629 103.405 42.7206 103.648 42.7974C103.891 42.8742 104.135 42.9445 104.378 43.0213C104.621 43.0981 104.871 43.1749 105.107 43.2517C105.351 43.3285 105.568 43.3989 105.767 43.4565C105.568 43.9621 105.351 44.4166 105.114 44.8326C104.877 45.2486 104.615 45.6389 104.327 46.0165L104.333 46.0101ZM103.802 50.7141C104.307 50.7141 104.877 50.7013 105.517 50.6757C106.157 50.6501 106.797 50.6245 107.431 50.5861C108.064 50.5541 108.672 50.5157 109.242 50.4773C109.811 50.4389 110.285 50.4005 110.663 50.3621C110.611 50.6181 110.579 50.8293 110.567 50.9957C110.554 51.1621 110.547 51.3285 110.547 51.5013V53.5557C110.547 53.8437 110.535 54.1573 110.503 54.5093C110.471 54.8613 110.387 55.2454 110.253 55.6678L108.999 55.9045C108.979 55.7893 108.96 55.6358 108.947 55.463C108.935 55.2838 108.922 55.0981 108.909 54.9061C108.896 54.7141 108.89 54.5286 108.877 54.343C108.864 54.1574 108.864 54.0101 108.864 53.8885V51.4181C108.122 51.3861 107.347 51.4054 106.541 51.463C105.735 51.5206 104.941 51.5782 104.173 51.623C103.879 51.6422 103.565 51.6741 103.232 51.7253C102.899 51.7765 102.567 51.8214 102.221 51.8726L101.632 50.5285C101.76 50.5477 101.92 50.5734 102.112 50.5926C102.304 50.6182 102.503 50.6373 102.714 50.6501C102.919 50.6629 103.123 50.6757 103.315 50.6885C103.507 50.6949 103.674 50.7013 103.808 50.7013L103.802 50.7141ZM107.456 41.5109C107.68 41.5429 107.949 41.5814 108.256 41.6326C108.563 41.6838 108.871 41.735 109.191 41.7926C109.504 41.8502 109.811 41.9078 110.099 41.9526C110.387 42.0038 110.631 42.0422 110.816 42.0678C110.797 42.1574 110.778 42.2725 110.765 42.4197C110.752 42.5669 110.733 42.7141 110.714 42.8613C110.695 43.0085 110.682 43.1429 110.669 43.2517C110.656 43.3669 110.656 43.4246 110.656 43.4374V47.4757C110.656 47.6421 110.643 47.8469 110.624 48.0837C110.605 48.3205 110.579 48.5573 110.547 48.8005C110.515 49.0437 110.49 49.2741 110.458 49.4853C110.426 49.7029 110.4 49.8693 110.368 49.9909L109.114 50.183C109.095 50.0742 109.075 49.9397 109.056 49.7733C109.037 49.6133 109.018 49.4405 109.005 49.2549C108.992 49.0757 108.979 48.8902 108.973 48.7173C108.973 48.5382 108.967 48.3845 108.967 48.2437V43.3797C108.967 43.0917 108.819 42.8613 108.531 42.6757C108.237 42.4901 107.77 42.3173 107.117 42.1509L107.456 41.4981V41.5109Z" fill="var(--fill-0, #727171)"/>
<path id="Vector_19" d="M125.504 50.3878C125.152 50.3174 124.819 50.2085 124.519 50.0613C124.218 49.9141 123.962 49.7349 123.744 49.5301C123.527 49.3253 123.354 49.0886 123.232 48.8326C123.111 48.5766 123.047 48.3077 123.047 48.0197C123.047 47.6741 123.13 47.3541 123.296 47.0661C123.463 46.7717 123.693 46.5221 123.981 46.3109C124.275 46.0997 124.615 45.9333 125.011 45.8181C125.408 45.7029 125.837 45.6389 126.298 45.6389C126.791 45.6389 127.239 45.7029 127.642 45.8309C128.045 45.9589 128.391 46.1381 128.679 46.3557C128.967 46.5797 129.184 46.8358 129.344 47.1174C129.504 47.4054 129.581 47.7061 129.581 48.0197C129.581 48.2949 129.523 48.5637 129.402 48.8197C129.287 49.0757 129.114 49.3125 128.896 49.5173C128.679 49.7221 128.423 49.9013 128.128 50.0485C127.834 50.1957 127.507 50.3045 127.149 50.3749V51.5589C127.891 51.4821 128.595 51.3861 129.28 51.2709C129.959 51.1557 130.599 51.0469 131.187 50.9381V43.3797C131.187 43.0917 131.047 42.8613 130.759 42.6757C130.471 42.4901 129.997 42.3173 129.338 42.1509L129.651 41.4981C129.888 41.5301 130.163 41.5685 130.471 41.6197C130.784 41.6709 131.091 41.7221 131.405 41.7797C131.719 41.8373 132.013 41.8949 132.301 41.9397C132.589 41.9909 132.826 42.0293 133.024 42.0549C133.005 42.1445 132.986 42.2597 132.967 42.4069C132.947 42.5541 132.928 42.7013 132.915 42.8485C132.903 42.9957 132.89 43.1301 132.877 43.2389C132.864 43.3541 132.864 43.4117 132.864 43.4245V51.5461C132.864 51.8533 132.858 52.2053 132.845 52.6021C132.832 52.9989 132.813 53.4021 132.787 53.8053C132.762 54.2085 132.736 54.5925 132.698 54.9573C132.666 55.3221 132.634 55.6102 132.602 55.8278L131.315 56.0069C131.303 55.8469 131.29 55.6357 131.277 55.3669C131.264 55.0981 131.251 54.8037 131.239 54.4837C131.232 54.1701 131.219 53.8501 131.207 53.5237C131.194 53.1973 131.194 52.8901 131.194 52.6085V51.7381C130.611 51.8533 130.003 51.9749 129.357 52.0837C128.717 52.1989 128.083 52.3013 127.463 52.4037C126.842 52.4997 126.247 52.5893 125.677 52.6533C125.107 52.7237 124.602 52.7749 124.147 52.8005C124.058 52.8133 123.917 52.8261 123.725 52.8453C123.533 52.8645 123.322 52.8901 123.091 52.9093C122.861 52.9349 122.631 52.9605 122.394 52.9861C122.163 53.0117 121.965 53.0373 121.792 53.0693L120.922 51.6165C121.082 51.6485 121.28 51.6741 121.523 51.6997C121.767 51.7253 122.01 51.7445 122.266 51.7637C122.515 51.7829 122.759 51.7957 122.983 51.8085C123.207 51.8213 123.379 51.8213 123.501 51.8213C124.16 51.7637 124.826 51.7189 125.498 51.6869V50.3557L125.504 50.3878ZM130.464 45.2101H129.651C129.325 45.2101 128.973 45.2101 128.589 45.2165C128.205 45.2165 127.808 45.2293 127.399 45.2357C126.989 45.2485 126.599 45.255 126.221 45.2678C125.843 45.2806 125.498 45.2869 125.178 45.2997C124.858 45.3125 124.595 45.3189 124.384 45.3317C124.275 45.3445 124.122 45.3573 123.917 45.3701C123.712 45.3829 123.507 45.4022 123.29 45.4278C123.072 45.4534 122.867 45.4725 122.669 45.4917C122.471 45.5109 122.317 45.5301 122.208 45.5493L121.511 44.1413C121.651 44.1605 121.824 44.1861 122.042 44.2245C122.259 44.2565 122.483 44.2885 122.72 44.3205C122.957 44.3525 123.181 44.3718 123.399 44.3974C123.616 44.4166 123.795 44.4293 123.93 44.4293C124.256 44.4293 124.691 44.423 125.248 44.3974C125.799 44.3782 126.394 44.3462 127.021 44.3078C127.648 44.2694 128.288 44.2181 128.928 44.1605C129.568 44.1029 130.144 44.0261 130.656 43.9365L130.451 45.2101H130.464ZM128.346 43.6293H127.77C127.552 43.6293 127.335 43.6293 127.117 43.6357C126.899 43.6357 126.695 43.6485 126.496 43.6485C126.298 43.6485 126.138 43.6549 126.01 43.6549C125.939 43.6549 125.837 43.655 125.696 43.6678C125.555 43.6806 125.408 43.6933 125.242 43.7061C125.082 43.7189 124.915 43.7381 124.749 43.7509C124.583 43.7637 124.435 43.7829 124.32 43.8021L123.642 42.5157C123.738 42.5477 123.891 42.5733 124.103 42.6053C124.307 42.6373 124.525 42.6629 124.743 42.6885C124.967 42.7141 125.178 42.7333 125.376 42.7461C125.581 42.7589 125.722 42.7653 125.811 42.7653C125.927 42.7653 126.099 42.7589 126.323 42.7461C126.547 42.7333 126.791 42.7141 127.053 42.6885C127.322 42.6629 127.591 42.6373 127.859 42.6053C128.128 42.5733 128.378 42.5477 128.608 42.5157L128.339 43.623L128.346 43.6293ZM124.794 47.9749C124.794 48.1797 124.839 48.3782 124.922 48.5574C125.005 48.7365 125.114 48.9029 125.255 49.0437C125.395 49.1845 125.555 49.2997 125.741 49.3765C125.927 49.4533 126.119 49.4917 126.317 49.4917C126.515 49.4917 126.688 49.4533 126.874 49.3765C127.059 49.2997 127.213 49.1909 127.347 49.0565C127.482 48.9221 127.591 48.7621 127.674 48.5765C127.757 48.3909 127.802 48.1861 127.802 47.9685C127.802 47.7829 127.757 47.5973 127.674 47.4117C127.591 47.2261 127.482 47.0725 127.347 46.9381C127.213 46.8037 127.059 46.6949 126.874 46.6117C126.688 46.5285 126.509 46.4837 126.317 46.4837C126.119 46.4837 125.927 46.5222 125.741 46.5926C125.555 46.6694 125.389 46.7653 125.255 46.8933C125.12 47.0213 125.005 47.1749 124.922 47.3605C124.839 47.5461 124.794 47.7445 124.794 47.9621V47.9749Z" fill="var(--fill-0, #727171)"/>
<path id="Vector_20" d="M147.533 47.1174C147.802 47.3862 148.083 47.6614 148.39 47.9558C148.698 48.2438 149.011 48.5382 149.338 48.8262C149.664 49.1206 149.99 49.4022 150.33 49.6774C150.662 49.9526 150.995 50.2086 151.322 50.4454L150.106 51.6742C149.645 51.1302 149.139 50.5286 148.602 49.863C148.064 49.1974 147.539 48.551 147.027 47.9302C146.515 48.6598 145.914 49.351 145.222 50.0038C144.531 50.6566 143.731 51.303 142.822 51.943L142.317 51.4694C142.886 51.015 143.411 50.5158 143.891 49.9654C144.371 49.415 144.8 48.8518 145.178 48.263C145.555 47.6742 145.882 47.0854 146.144 46.4966C146.407 45.9078 146.611 45.3446 146.752 44.8134C146.81 44.6342 146.829 44.5318 146.803 44.4934C146.778 44.455 146.758 44.4102 146.739 44.3398C146.688 44.2438 146.579 44.135 146.4 44.0262C146.221 43.9174 146.022 43.8214 145.792 43.7446L146.106 43.1942C146.31 43.2454 146.541 43.303 146.79 43.3798C147.04 43.4566 147.296 43.527 147.558 43.6102C147.821 43.687 148.077 43.7638 148.326 43.8406C148.576 43.9174 148.8 43.975 148.998 44.0262C148.781 44.6086 148.557 45.1526 148.326 45.6518C148.096 46.151 147.827 46.6438 147.52 47.1174H147.533ZM153.76 51.5718C153.76 51.879 153.754 52.231 153.741 52.6278C153.728 53.0246 153.709 53.4278 153.683 53.831C153.658 54.2342 153.632 54.6182 153.606 54.983C153.581 55.3478 153.555 55.6358 153.523 55.8534L152.224 56.0326C152.205 55.8726 152.186 55.6614 152.173 55.3926C152.16 55.1238 152.141 54.8294 152.128 54.5094C152.115 54.1958 152.102 53.8758 152.096 53.5494C152.09 53.223 152.09 52.9158 152.09 52.6342V43.3862C152.09 43.0982 151.949 42.8678 151.674 42.6822C151.399 42.4966 150.931 42.3238 150.285 42.1574L150.579 41.5046C150.822 41.5366 151.104 41.575 151.418 41.6262C151.731 41.6774 152.038 41.7286 152.358 41.7862C152.672 41.8438 152.973 41.9014 153.255 41.9462C153.536 41.9974 153.766 42.0358 153.958 42.0614C153.926 42.151 153.907 42.2662 153.882 42.4134C153.862 42.5606 153.843 42.7078 153.824 42.855C153.805 43.0022 153.792 43.1366 153.779 43.2454C153.766 43.3606 153.766 43.4182 153.766 43.431V47.6166C153.984 47.5974 154.221 47.5718 154.483 47.5398C154.746 47.5078 155.008 47.4822 155.27 47.4502C155.533 47.4182 155.782 47.3862 156.026 47.3542C156.269 47.3222 156.48 47.2774 156.653 47.2262L156.506 48.6022C156.358 48.5894 156.173 48.5894 155.955 48.5894H153.766V51.5462L153.76 51.5718Z" fill="var(--fill-0, #727171)"/>
<path id="Vector_21" d="M183.053 44.7366C182.707 44.7174 182.317 44.7238 181.875 44.7558C181.434 44.7878 181.037 44.8198 180.672 44.8518C180.563 44.8646 180.416 44.871 180.237 44.8902C180.058 44.9094 179.859 44.9222 179.654 44.935C179.45 44.9478 179.238 44.967 179.027 44.9926C178.816 45.0182 178.618 45.0438 178.445 45.0758L177.6 43.7126C177.715 43.7318 177.882 43.7574 178.093 43.7894C178.304 43.8214 178.534 43.847 178.771 43.8726C179.014 43.8982 179.251 43.9174 179.482 43.9366C179.712 43.9558 179.91 43.9686 180.064 43.9686C180.333 43.9686 180.666 43.9686 181.062 43.9558C181.459 43.943 181.888 43.9366 182.336 43.9174C182.784 43.8982 183.245 43.879 183.712 43.8534C184.179 43.8214 184.614 43.7894 185.024 43.751C185.005 43.8086 184.979 43.8918 184.96 44.0006C184.934 44.1094 184.909 44.2246 184.877 44.3462C184.845 44.4678 184.819 44.5894 184.794 44.7046C184.768 44.8198 184.749 44.903 184.742 44.967L184.506 47.1622C184.582 47.1622 184.666 47.1622 184.749 47.1558C184.832 47.1494 184.922 47.143 185.005 47.1302L184.858 48.2118C183.77 48.1606 182.874 48.1478 182.157 48.1734C181.44 48.199 180.826 48.231 180.314 48.2694C180.314 48.3462 180.314 48.4166 180.301 48.4678C180.288 48.519 180.288 48.5894 180.288 48.6662V50.663C180.288 50.919 180.365 51.047 180.525 51.047C180.87 51.015 181.286 50.9702 181.779 50.9062C182.272 50.8422 182.803 50.759 183.379 50.6566C183.949 50.5542 184.538 50.4326 185.146 50.2918C185.754 50.1574 186.349 49.9974 186.931 49.8182V43.3862C186.931 43.0982 186.784 42.8678 186.496 42.6822C186.208 42.4966 185.734 42.3238 185.082 42.1574L185.421 41.5046C185.645 41.5366 185.914 41.575 186.221 41.6262C186.528 41.6774 186.835 41.7286 187.155 41.7862C187.469 41.8438 187.776 41.9014 188.064 41.9462C188.352 41.991 188.595 42.0358 188.781 42.0614C188.762 42.151 188.742 42.2662 188.723 42.4134C188.704 42.5606 188.685 42.7078 188.666 42.855C188.646 43.0022 188.634 43.1366 188.621 43.2454C188.608 43.3606 188.608 43.4182 188.608 43.431V51.5526C188.608 51.8598 188.602 52.2118 188.589 52.6086C188.576 53.0054 188.557 53.4086 188.531 53.8118C188.506 54.215 188.48 54.599 188.442 54.9638C188.41 55.3286 188.371 55.6166 188.333 55.8342L187.078 56.0134C187.059 55.8534 187.04 55.6422 187.027 55.3734C187.014 55.1046 186.995 54.8102 186.982 54.4902C186.97 54.1766 186.957 53.8566 186.95 53.5302C186.944 53.2038 186.944 52.8966 186.944 52.615V50.5414C186.438 50.7078 185.882 50.8806 185.267 51.0534C184.653 51.2262 184.038 51.3862 183.424 51.5334C182.81 51.6806 182.227 51.8086 181.677 51.9174C181.126 52.0262 180.659 52.0966 180.269 52.1222C179.68 52.1798 179.258 52.103 179.014 51.879C178.771 51.655 178.643 51.303 178.643 50.823V48.8582C178.643 48.6918 178.63 48.551 178.611 48.4422C178.592 48.3334 178.547 48.2374 178.47 48.1606C178.394 48.0838 178.285 48.0134 178.144 47.9558C178.003 47.8982 177.811 47.8342 177.574 47.7638L177.901 47.2006C178.797 47.2902 179.674 47.335 180.525 47.3414C181.376 47.3478 182.189 47.3222 182.957 47.2774L183.059 44.7174L183.053 44.7366Z" fill="var(--fill-0, #727171)"/>
<path id="Vector_22" d="M205.882 48.3462C206.253 48.2758 206.643 48.2182 207.034 48.1734C207.431 48.1286 207.795 48.071 208.141 48.0006V43.3862C208.141 43.0982 208 42.8678 207.725 42.6822C207.45 42.4966 206.983 42.3238 206.336 42.1574L206.631 41.5046C206.874 41.5366 207.155 41.575 207.469 41.6262C207.783 41.6774 208.09 41.7286 208.41 41.7862C208.723 41.8438 209.024 41.9014 209.306 41.9462C209.587 41.9974 209.824 42.0358 210.01 42.0614C209.978 42.151 209.959 42.2662 209.933 42.4134C209.914 42.5606 209.895 42.7078 209.875 42.855C209.856 43.0022 209.843 43.1366 209.831 43.2454C209.818 43.3606 209.818 43.4182 209.818 43.431V46.2278C210.035 46.1958 210.272 46.1702 210.528 46.1382C210.784 46.1062 211.04 46.0742 211.296 46.0422C211.552 46.0102 211.802 45.9718 212.039 45.9398C212.275 45.9078 212.487 45.8758 212.672 45.8438L212.525 47.1878C212.378 47.1814 212.192 47.1686 211.975 47.1686C211.757 47.1686 211.527 47.1622 211.277 47.1622H209.811V48.0198C209.811 48.199 209.799 48.4102 209.779 48.6534C209.76 48.8966 209.741 49.1462 209.722 49.383C209.703 49.6262 209.677 49.8566 209.645 50.0742C209.613 50.2918 209.594 50.4582 209.587 50.5798L208.256 50.7846C208.237 50.6758 208.224 50.5414 208.211 50.3686C208.199 50.2022 208.186 50.023 208.173 49.8374C208.16 49.6518 208.147 49.4662 208.141 49.2934C208.135 49.1206 208.135 48.9606 208.135 48.8326V48.7302C207.021 48.9862 205.92 49.1974 204.839 49.3574C203.757 49.5174 202.765 49.639 201.863 49.7222C201.754 49.735 201.594 49.7478 201.389 49.767C201.184 49.7862 200.96 49.8118 200.73 49.831C200.499 49.8566 200.269 49.8822 200.032 49.9078C199.795 49.9334 199.603 49.959 199.431 49.991L198.605 48.5254C198.752 48.5574 198.944 48.5894 199.175 48.6214C199.405 48.6534 199.648 48.6854 199.898 48.7046C200.147 48.7238 200.397 48.743 200.64 48.7558C200.883 48.7686 201.088 48.775 201.255 48.7622L201.12 46.3942C201.101 46.279 201.082 46.1638 201.069 46.0614C201.056 45.959 201.024 45.8694 200.973 45.7862C200.922 45.703 200.845 45.639 200.736 45.5814C200.627 45.5238 200.48 45.4854 200.295 45.4662L200.474 44.9158C200.602 44.9158 200.762 44.9158 200.954 44.9222C201.146 44.9222 201.351 44.935 201.562 44.9478C201.773 44.9542 201.978 44.967 202.183 44.9862C202.387 44.999 202.567 45.0246 202.739 45.0502C202.72 45.1398 202.707 45.2422 202.695 45.3638C202.682 45.4854 202.675 45.6006 202.669 45.7286C202.669 45.8502 202.669 45.9782 202.669 46.0998C202.669 46.2214 202.682 46.3366 202.695 46.4326L202.797 48.6342C203.053 48.615 203.315 48.5958 203.591 48.5766C203.866 48.5574 204.135 48.5382 204.41 48.519V46.0806C204.423 45.9334 204.423 45.8054 204.41 45.703C204.403 45.6006 204.371 45.5174 204.32 45.4534C204.269 45.3894 204.192 45.3382 204.09 45.3062C203.987 45.2742 203.84 45.2422 203.655 45.2102L203.834 44.647C204.128 44.6662 204.467 44.6918 204.845 44.7238C205.223 44.7558 205.683 44.8006 206.215 44.871C206.163 45.0374 206.112 45.2486 206.055 45.5046C205.997 45.7542 205.959 45.9846 205.952 46.183L205.875 48.3526L205.882 48.3462ZM207.034 44.3078C206.637 44.295 206.202 44.295 205.722 44.3078C205.242 44.3142 204.768 44.3334 204.301 44.3526C203.834 44.3718 203.392 44.3974 202.983 44.423C202.573 44.455 202.234 44.4742 201.971 44.4998C201.843 44.5126 201.677 44.5254 201.466 44.5446C201.255 44.5638 201.043 44.583 200.813 44.6022C200.583 44.6214 200.365 44.647 200.154 44.6662C199.943 44.6918 199.77 44.711 199.642 44.7174L198.989 43.3094C199.136 43.3286 199.328 43.3542 199.565 43.3862C199.802 43.4182 200.045 43.4438 200.295 43.4694C200.544 43.495 200.794 43.5142 201.037 43.5334C201.28 43.5526 201.472 43.5654 201.619 43.5654C201.965 43.5654 202.355 43.5526 202.797 43.527C203.239 43.5014 203.706 43.463 204.205 43.4182C204.704 43.3734 205.216 43.3094 205.754 43.2454C206.285 43.1814 206.823 43.111 207.354 43.0278L207.027 44.3014L207.034 44.3078ZM207.303 50.7462C207.687 50.8038 208.039 50.9126 208.352 51.0726C208.666 51.2326 208.941 51.4182 209.165 51.6422C209.389 51.8662 209.568 52.1158 209.69 52.3974C209.811 52.679 209.875 52.9798 209.875 53.2934C209.875 53.6454 209.792 53.9846 209.626 54.2982C209.459 54.6118 209.223 54.887 208.922 55.111C208.621 55.335 208.263 55.5206 207.859 55.6486C207.45 55.783 207.002 55.847 206.522 55.847C206.042 55.847 205.607 55.783 205.203 55.6486C204.8 55.5142 204.448 55.335 204.154 55.111C203.859 54.887 203.629 54.6118 203.469 54.2982C203.309 53.9846 203.226 53.6454 203.226 53.2934C203.226 52.967 203.29 52.6598 203.424 52.3654C203.559 52.0774 203.744 51.815 203.981 51.591C204.218 51.367 204.499 51.175 204.832 51.0278C205.165 50.8806 205.523 50.7846 205.92 50.7334C205.907 50.5926 205.863 50.4966 205.773 50.4326C205.683 50.3686 205.517 50.2982 205.267 50.215L205.594 49.6518C205.715 49.671 205.856 49.703 206.023 49.7414C206.189 49.7798 206.368 49.8182 206.547 49.8566C206.733 49.895 206.912 49.9334 207.085 49.9782C207.258 50.023 207.411 50.055 207.527 50.0806C207.45 50.2406 207.392 50.3622 207.367 50.4518C207.335 50.5414 207.315 50.6374 207.309 50.7462H207.303ZM208.128 53.2166C208.128 52.9734 208.083 52.743 208 52.5318C207.917 52.3206 207.802 52.135 207.655 51.9814C207.507 51.8278 207.335 51.7062 207.136 51.6166C206.938 51.527 206.733 51.4822 206.515 51.4822C206.298 51.4822 206.106 51.527 205.907 51.6166C205.709 51.7062 205.536 51.8278 205.389 51.9814C205.242 52.135 205.12 52.3142 205.037 52.5318C204.954 52.7494 204.903 52.9734 204.903 53.2166C204.903 53.4598 204.947 53.6774 205.037 53.8822C205.127 54.087 205.242 54.2662 205.389 54.4134C205.536 54.5606 205.709 54.6758 205.907 54.759C206.106 54.8422 206.304 54.887 206.515 54.887C206.97 54.887 207.354 54.727 207.661 54.4134C207.968 54.0998 208.128 53.6966 208.128 53.2166Z" fill="var(--fill-0, #727171)"/>
<path id="Vector_23" d="M46.7329 2.75895H45.9521V56.0453H46.7329V2.75895Z" fill="var(--fill-0, #727171)"/>
</g>
</svg>
