<svg xmlns="http://www.w3.org/2000/svg" width="48" height="48" viewBox="0 0 48 48" fill="none">
  <rect width="48" height="48" fill="white"/>
  <path d="M34.5777 29.055C34.5911 29.3136 34.3414 29.3404 34.2879 29.639C34.0427 29.6301 33.6861 29.853 33.4988 29.639C33.0575 30.0492 31.9563 30.0804 31.2118 30.0537C31.0335 30.0447 29.2458 29.9199 28.5949 30.0537C28.3987 30.0938 26.1385 30.2052 25.1844 30.3434C24.2839 30.7357 20.6728 30.9052 19.8168 30.8427C19.108 31.0746 17.1643 31.3287 17.0706 31.3421C16.5446 31.4178 14.8772 31.7968 14.6588 32.0063C14.534 32.0375 13.0048 32.4878 12.7463 32.5903C11.7209 32.8756 11.8858 32.6795 11.498 32.5457C11.1369 31.6809 10.1605 31.0032 10.3745 29.8441C10.2586 29.6435 9.9956 29.6168 10.0001 29.3849C10.009 28.9213 13.999 29.2289 15.488 29.0952C16.2013 28.7028 17.5922 29.1531 18.2342 28.7608C18.9965 28.8054 20.6371 28.2793 20.9358 28.2214C20.9046 27.8781 21.0874 24.4765 21.3103 23.2283C21.5733 23.2194 21.9657 23.2283 22.0994 22.9786C22.3624 23.1614 23.9094 24.0931 24.2215 24.3517C24.3195 24.432 24.8501 24.744 25.0106 24.851C25.3048 25.0427 25.5143 25.4306 25.7996 25.6401C25.9155 25.7204 26.1028 25.7337 26.2142 25.8051C26.3346 25.8809 26.3837 25.9656 26.504 26.0547C26.5263 26.398 26.4282 26.6164 26.2945 26.8037C25.7952 26.8661 25.4162 26.7234 24.8813 26.8438C24.4667 27.0132 24.11 27.2361 23.6731 27.3832C23.4279 27.7221 22.8751 27.7533 22.8439 28.2972C23.5527 28.3507 24.4979 28.3997 25.171 28.2125C25.5143 28.1188 26.0225 28.2214 26.4193 28.1277C26.5754 28.0921 30.708 27.5526 31.7824 27.6284C31.9429 27.6374 32.0945 27.459 32.197 27.459C32.1837 27.4679 32.4913 27.6374 32.5314 27.5437C32.7588 27.8692 33.2937 27.887 33.53 28.208C33.695 28.2481 33.8599 28.2927 34.0293 28.3328C34.1363 28.6003 34.5554 28.7474 34.5688 29.0417" fill="#B2081D"/>
  <path d="M31.087 33.794C31.1004 34.4716 29.9635 35.76 29.9635 35.8715C29.4999 36.353 29.1566 36.9504 29.005 37.7439C28.6974 38.3502 28.1313 39.8348 28.1313 39.9462C28.0109 39.9105 27.7479 41.3639 27.5472 41.8587C27.4625 42.0638 26.5977 44.0967 25.8844 44.44C25.2691 44.0432 24.9482 43.3522 24.3463 42.9421C23.954 42.2912 23.4859 41.725 23.1827 40.9894C23.4591 40.1691 24.81 40.7308 25.2647 41.0741H25.599C25.8041 40.5748 25.8888 40.3162 26.0538 39.7411C26.3123 38.8361 26.7403 37.9044 27.1772 37.1643C27.1772 37.0529 27.6186 35.6352 27.8861 35.0869C27.7835 34.6054 27.6899 34.057 27.2619 33.9634C26.3391 33.9188 25.122 34.3959 25.122 34.4806C24.4488 35.1671 23.6464 36.7275 22.9286 37.4274C22.3803 38.2343 21.4664 39.2062 20.1512 40.0354C19.8837 40.022 19.7946 40.1825 19.487 40.1201C19.2819 39.9774 19.1749 39.487 19.4067 39.166C19.4959 39.0368 19.7589 39.01 19.8614 38.9164C19.9907 38.796 20.3652 38.3012 20.441 38.2075C20.4767 38.1674 20.9091 37.5834 20.9403 37.5433C21.0339 37.4095 23.3388 33.901 24.0164 32.568C24.0164 32.4566 24.2126 31.8948 24.2126 31.7879C24.6227 31.5872 24.7297 30.8204 25.1532 30.7892C25.5723 30.758 25.6837 31.235 26.2187 31.1949C26.4104 31.3198 26.7047 31.4446 26.9543 31.5516C27.0702 31.5159 27.4937 31.6407 27.7256 31.5114C28.0599 31.4892 28.3319 31.7165 28.5147 31.8235C28.6974 31.935 28.8401 32.0598 29.1745 32.14C29.6292 32.461 30.5164 33.1832 31.087 33.8029" fill="#B2081D"/>
  <path d="M34.3459 17.4416C34.3994 17.8206 34.1988 17.9454 34.2612 18.3332C34.0427 18.6676 33.6192 18.7969 33.3696 19.1C32.8703 19.1446 32.3799 19.0599 31.885 19.1C31.6309 19.1223 31.3768 19.2427 31.1182 19.2249C30.8106 19.207 30.5476 19.0421 30.2266 19.0555C29.433 19.0867 28.1268 19.0465 27.1639 19.0109C26.7403 18.9975 26.3703 18.9708 26.0181 19.2249C25.7283 19.207 25.336 19.2828 25.1711 19.1402C24.3285 19.314 23.3388 19.3497 22.621 19.6484C22.4739 19.6528 19.9239 20.4152 18.9654 20.6292C18.8762 20.6425 18.9253 20.7897 18.8361 20.7986C17.9578 20.647 17.1375 21.1641 16.2013 21.2221C16.1746 21.075 15.9205 20.8209 15.7778 20.6693C15.5014 20.384 15.3008 20.219 14.8862 20.0764C14.7034 19.6662 14.5741 19.1981 14.4181 18.7612C14.476 18.6765 14.5518 18.6141 14.5875 18.5071C14.9932 18.5071 14.9664 18.4313 15.3097 18.5071C15.4435 18.5561 16.3797 18.5027 16.5624 18.3778C18.3457 18.4536 18.8093 18.0747 20.0264 17.8696C20.6372 17.7671 21.239 17.8696 21.8097 17.6155C22.037 17.6155 22.7191 17.5308 22.786 17.4461C23.5884 17.5798 23.9317 17.0359 24.4845 17.0627C25.3895 16.5232 25.7596 15.4488 26.0137 14.2585C26.2722 13.9509 26.1964 13.2242 26.3837 12.9345C26.3614 12.0205 26.5308 11.062 26.727 10.3666C27.3556 10.2105 27.9708 10.7277 28.6484 10.6029C28.8089 11.1601 29.6069 11.276 29.5846 11.8779C28.5771 12.6402 28.537 14.37 27.6275 15.2348C27.6587 15.3909 27.1371 16.3137 26.9053 16.6793C26.9632 16.7774 27.0836 16.813 27.1594 16.8888C28.109 16.813 29.1031 16.9111 30.2623 16.764C30.3024 16.8353 32.3442 17.085 33.2804 16.9334C33.6014 17.1385 33.9224 17.3435 34.3414 17.4461" fill="#B2081D"/>
  <path d="M31.0736 7.96365C31.0914 8.36934 31.457 8.4273 31.6264 8.68587C31.6175 9.15843 31.2965 9.31892 30.7749 9.28326C30.3603 9.59087 30.173 9.48387 29.6202 9.59087C29.4731 9.524 28.9471 9.7469 28.7777 9.71124C27.5517 10.0946 23.8113 10.0411 23.5929 10.0946C22.3802 10.3265 21.4886 10.8793 20.2359 11.071C19.9417 11.3162 19.4557 11.3652 19.1749 11.6238C18.4883 11.7932 18.0603 11.4722 17.8151 11.071C17.8597 10.2596 17.1553 9.6087 17.561 8.86419C17.9801 8.82853 19.3755 9.1406 19.5627 9.29217C19.9996 9.10493 20.7174 9.19855 21.1766 9.03806C21.823 9.16735 25.1621 8.29355 25.55 8.06173C25.8487 8.02161 26.3212 8.15089 26.4862 7.97703C26.5843 8.04836 27.1371 7.97703 27.2084 7.89232C28.0019 7.95028 28.5146 7.72737 29.0808 7.55351C29.5222 7.66942 29.9635 7.19686 30.182 7.72291C30.5342 7.75412 30.7704 7.90124 31.0736 7.97703" fill="#B2081D"/>
  <path d="M26.6556 6.51922C26.4327 7.52676 24.9615 7.29048 24.061 7.62484C23.6063 7.28602 22.942 7.15673 22.572 6.73321C21.2167 6.48802 21.0295 5.07479 20.1913 4.31245V4.05388C21.0116 3.8176 21.9746 4.45957 22.786 4.05388C23.3744 4.27233 23.8202 4.63789 24.3998 4.8608C24.5915 5.31999 26.3123 6.20715 26.6511 6.51922" fill="#B2081D"/>
  <path d="M22.3625 12.9345C23.3477 13.0593 23.9094 12.074 24.6985 12.5511C24.6495 13.7191 23.8292 14.1159 23.6375 15.1457C23.2675 15.5469 22.6924 15.8857 21.939 15.6539C21.7695 15.5558 21.6848 15.3418 21.5154 15.2304C21.132 14.9718 20.4856 14.9763 20.1557 14.6776C19.9551 14.4993 19.8392 14.3076 19.6876 14.0847C19.5628 13.7235 19.7634 13.6522 19.7277 13.3624C20.0799 13.3045 20.2716 13.0816 20.6194 13.0236C20.7486 13.0325 20.7486 13.1752 20.7888 13.2777C21.0429 13.2777 21.7294 13.0013 22.358 12.9389" fill="#B2081D"/>
</svg>
